<svg xmlns="http://www.w3.org/2000/svg" xmlns:xlink="http://www.w3.org/1999/xlink" width="1587" zoomAndPan="magnify" viewBox="0 0 1190.25 1683.749945" height="2245" preserveAspectRatio="xMidYMid meet" version="1.0"><defs><clipPath id="71facb7c71"><path d="M 0 767 L 744.699219 767 L 744.699219 945.910156 L 0 945.910156 Z M 0 767 " clip-rule="nonzero"/></clipPath><clipPath id="820125d67b"><path d="M 446 767 L 1189.5 767 L 1189.5 945.910156 L 446 945.910156 Z M 446 767 " clip-rule="nonzero"/></clipPath></defs><g clip-path="url(#71facb7c71)"><path fill="#ffde59" d="M 743.738281 945.617188 L 0.453125 945.910156 L 0.453125 796.132812 C 0.453125 796.132812 16.6875 801.339844 87.671875 818.316406 C 143.835938 831.75 263.605469 838.550781 394.542969 794.800781 C 428.730469 783.382812 622.457031 738.375 744.261719 796.023438 Z M 743.738281 945.617188 " fill-opacity="1" fill-rule="nonzero"/></g><g clip-path="url(#820125d67b)"><path fill="#ffde59" d="M 446.554688 945.617188 L 1189.839844 945.910156 L 1189.839844 796.132812 C 1189.839844 796.132812 1173.605469 801.339844 1102.625 818.316406 C 1046.457031 831.75 926.6875 838.550781 795.75 794.800781 C 761.5625 783.382812 567.835938 738.375 446.03125 796.023438 Z M 446.554688 945.617188 " fill-opacity="1" fill-rule="nonzero"/></g></svg>