<svg xmlns="http://www.w3.org/2000/svg" xmlns:xlink="http://www.w3.org/1999/xlink" width="1587" zoomAndPan="magnify" viewBox="0 0 1190.25 1683.749945" height="2245" preserveAspectRatio="xMidYMid meet" version="1.0"><defs><g/><clipPath id="15056e1c94"><path d="M 500 1238 L 648 1238 L 648 1276.671875 L 500 1276.671875 Z M 500 1238 " clip-rule="nonzero"/></clipPath></defs><g clip-path="url(#15056e1c94)"><path fill="#ab7704" d="M 648 1257.558594 C 648 1268.105469 614.972656 1276.652344 574.222656 1276.652344 C 533.476562 1276.652344 500.445312 1268.105469 500.445312 1257.558594 C 500.445312 1247.015625 533.476562 1238.472656 574.222656 1238.472656 C 614.972656 1238.472656 648 1247.015625 648 1257.558594 " fill-opacity="1" fill-rule="nonzero"/></g><path fill="#eca810" d="M 745.449219 782.46875 C 682.203125 687.914062 554.289062 662.535156 459.742188 725.785156 C 365.195312 789.035156 339.820312 916.957031 403.0625 1011.511719 L 574.257812 1267.453125 L 745.449219 1011.511719 C 790.300781 944.285156 793.175781 853.820312 745.449219 782.46875 " fill-opacity="1" fill-rule="nonzero"/><path fill="#ffde59" d="M 570.066406 1100.34375 C 571.019531 1102.324219 574.515625 1100.164062 573.550781 1098.164062 C 572.082031 1095.140625 571.082031 1091.894531 570.023438 1088.714844 C 569.28125 1086.492188 565.507812 1088.03125 566.1875 1090.066406 C 567.347656 1093.535156 568.46875 1097.046875 570.066406 1100.34375 " fill-opacity="1" fill-rule="nonzero"/><path fill="#ffde59" d="M 599.675781 1154.355469 C 599.597656 1150.898438 598.0625 1147.519531 595.695312 1145.027344 C 594.445312 1143.710938 590.886719 1145.71875 592.304688 1147.207031 C 594.320312 1149.328125 595.65625 1152.195312 595.71875 1155.140625 C 595.777344 1157.210938 599.726562 1156.167969 599.675781 1154.355469 " fill-opacity="1" fill-rule="nonzero"/><path fill="#ffde59" d="M 599.671875 1157.820312 C 598.242188 1157.820312 596.664062 1161.546875 598.203125 1161.546875 C 599.625 1161.546875 601.207031 1157.820312 599.671875 1157.820312 " fill-opacity="1" fill-rule="nonzero"/><path fill="#ffde59" d="M 620.535156 1158.878906 C 619.953125 1160.820312 623.757812 1159.449219 624.195312 1158.015625 C 626.402344 1150.667969 625.566406 1143.476562 622.863281 1136.378906 C 622.3125 1134.929688 618.777344 1136.972656 619.394531 1138.582031 C 619.511719 1138.882812 619.613281 1139.183594 619.71875 1139.480469 C 619.335938 1139.394531 618.824219 1139.554688 618.523438 1139.753906 C 617.710938 1140.292969 617.105469 1141.230469 617.105469 1142.214844 L 617.105469 1145.917969 C 617.105469 1146.902344 618.285156 1146.660156 618.808594 1146.316406 C 619.621094 1145.777344 620.21875 1144.839844 620.21875 1143.851562 L 620.21875 1140.976562 C 622.050781 1146.851562 622.351562 1152.832031 620.535156 1158.878906 " fill-opacity="1" fill-rule="nonzero"/><path fill="#ffde59" d="M 564.195312 1122.246094 L 562.957031 1122.246094 C 562.027344 1122.246094 561.007812 1122.921875 561.140625 1123.957031 C 561.28125 1125.015625 562.421875 1125.589844 563.394531 1125.589844 L 564.625 1125.589844 C 565.550781 1125.589844 566.570312 1124.910156 566.4375 1123.878906 C 566.300781 1122.820312 565.152344 1122.246094 564.195312 1122.246094 " fill-opacity="1" fill-rule="nonzero"/><path fill="#ffde59" d="M 559.90625 1106.351562 C 560.003906 1108.132812 561.394531 1109.417969 562.582031 1110.605469 C 563.253906 1111.289062 564.382812 1111.503906 565.304688 1111.378906 C 565.507812 1111.347656 565.785156 1111.261719 566.011719 1111.125 C 565.488281 1112.875 565.128906 1114.671875 564.351562 1116.335938 C 564.070312 1116.941406 563.894531 1118.226562 564.835938 1118.363281 C 565.792969 1118.5 566.585938 1117.445312 566.925781 1116.703125 C 568.035156 1114.324219 568.289062 1111.675781 569.398438 1109.300781 C 569.671875 1108.703125 569.851562 1107.414062 568.910156 1107.28125 C 567.960938 1107.144531 567.164062 1108.199219 566.820312 1108.941406 C 566.621094 1109.351562 566.464844 1109.777344 566.3125 1110.210938 L 566.238281 1110.097656 C 565.429688 1109.292969 564.042969 1108.199219 563.976562 1106.953125 C 563.925781 1106.078125 562.800781 1105.746094 562.085938 1105.644531 C 561.65625 1105.578125 559.863281 1105.515625 559.90625 1106.351562 " fill-opacity="1" fill-rule="nonzero"/><path fill="#ffde59" d="M 626.910156 1108.550781 C 625.71875 1108.550781 624.082031 1112.160156 625.214844 1112.160156 C 626.410156 1112.160156 628.054688 1108.550781 626.910156 1108.550781 " fill-opacity="1" fill-rule="nonzero"/><path fill="#ffde59" d="M 587.050781 1118.988281 C 587.386719 1118.640625 587.703125 1118.265625 588.003906 1117.882812 C 588.300781 1117.507812 588.597656 1117.113281 588.851562 1116.707031 C 588.953125 1116.554688 589.117188 1116.335938 589.109375 1116.140625 C 589.066406 1115.09375 587.917969 1114.722656 587.882812 1113.671875 L 587.386719 1114.050781 C 587.050781 1114.402344 586.738281 1114.777344 586.4375 1115.152344 C 586.132812 1115.535156 585.847656 1115.925781 585.582031 1116.335938 C 585.484375 1116.484375 585.324219 1116.703125 585.332031 1116.898438 C 585.367188 1117.949219 586.519531 1118.3125 586.5625 1119.363281 L 587.050781 1118.988281 " fill-opacity="1" fill-rule="nonzero"/><path fill="#ffde59" d="M 572.5 1085.011719 L 572.5 1081.308594 C 572.5 1079.820312 568.644531 1078.503906 568.644531 1080.203125 L 568.644531 1083.90625 C 568.644531 1085.386719 572.5 1086.703125 572.5 1085.011719 " fill-opacity="1" fill-rule="nonzero"/><path fill="#ffde59" d="M 587.25 1182.902344 C 583.570312 1183.746094 580.707031 1182.980469 578.492188 1179.835938 C 577.394531 1178.273438 573.617188 1179.519531 574.988281 1181.464844 C 578.171875 1185.984375 583.246094 1186.980469 588.425781 1185.792969 C 591.054688 1185.1875 589.507812 1182.386719 587.25 1182.902344 " fill-opacity="1" fill-rule="nonzero"/><path fill="#ffde59" d="M 556.589844 1159.875 C 556.675781 1158.945312 555.414062 1158.386719 554.664062 1158.371094 C 553.089844 1158.335938 552.222656 1157.496094 551.144531 1156.421875 C 549.941406 1155.222656 546.308594 1156.246094 548.078125 1158.011719 C 549.847656 1159.78125 551.851562 1160.929688 554.421875 1160.992188 C 555.171875 1161.011719 556.496094 1160.875 556.589844 1159.875 " fill-opacity="1" fill-rule="nonzero"/><path fill="#ffde59" d="M 537.054688 1122.125 C 532.039062 1115.691406 528.363281 1108.433594 524.722656 1101.167969 C 524.875 1101.457031 522.226562 1103.792969 522.703125 1104.746094 C 526.339844 1112.019531 530.015625 1119.273438 535.035156 1125.707031 C 534.988281 1125.652344 537.597656 1122.828125 537.054688 1122.125 " fill-opacity="1" fill-rule="nonzero"/><path fill="#ffde59" d="M 539.214844 1068.742188 C 541.675781 1070.027344 543.804688 1072.1875 545.089844 1074.648438 C 545.625 1075.679688 549.3125 1074.75 549.199219 1074.53125 C 547.753906 1071.769531 545.503906 1069.546875 542.746094 1068.105469 C 541.984375 1067.707031 540.734375 1067.851562 539.929688 1067.988281 C 539.582031 1068.050781 538.449219 1068.34375 539.214844 1068.742188 " fill-opacity="1" fill-rule="nonzero"/><path fill="#ffde59" d="M 582.777344 1122.082031 C 581.761719 1122.046875 580.792969 1122.890625 580.867188 1123.933594 C 580.945312 1125.035156 581.960938 1125.683594 582.980469 1125.746094 L 583.03125 1125.765625 L 583.039062 1125.765625 L 583.542969 1126.0625 L 584 1126.441406 C 584.746094 1127.175781 586.136719 1127.15625 586.886719 1126.453125 C 587.707031 1125.679688 587.464844 1124.570312 586.738281 1123.859375 C 585.695312 1122.828125 584.246094 1122.140625 582.777344 1122.082031 " fill-opacity="1" fill-rule="nonzero"/><path fill="#ffde59" d="M 580.492188 1104.417969 C 580.914062 1104.191406 581.308594 1103.851562 581.601562 1103.4375 C 581.78125 1103.433594 581.957031 1103.433594 582.136719 1103.433594 C 583.097656 1103.433594 584.007812 1102.472656 584.367188 1101.667969 C 584.675781 1100.976562 584.628906 1100.007812 583.667969 1100.007812 C 582.75 1100.007812 581.730469 1100.023438 580.914062 1100.511719 C 579.691406 1101.242188 578.839844 1102.390625 578.789062 1103.84375 C 578.75 1104.828125 579.90625 1104.734375 580.492188 1104.417969 " fill-opacity="1" fill-rule="nonzero"/><path fill="#ffde59" d="M 570.726562 1132.414062 C 570.707031 1132.632812 570.683594 1133.0625 570.933594 1133.179688 C 571.199219 1133.296875 571.5 1133.003906 571.65625 1132.851562 L 574.121094 1130.386719 C 574.78125 1129.726562 575.261719 1128.675781 575.351562 1127.75 C 575.371094 1127.535156 575.398438 1127.109375 575.140625 1126.988281 C 574.878906 1126.871094 574.574219 1127.164062 574.421875 1127.316406 L 571.957031 1129.789062 C 571.292969 1130.441406 570.816406 1131.488281 570.726562 1132.414062 " fill-opacity="1" fill-rule="nonzero"/><path fill="#ffde59" d="M 608.972656 1126.78125 C 613.433594 1126.78125 609.804688 1122.074219 606.71875 1122.074219 C 602.253906 1122.074219 605.886719 1126.78125 608.972656 1126.78125 " fill-opacity="1" fill-rule="nonzero"/><path fill="#ffde59" d="M 610.3125 1137.570312 C 607.804688 1137.570312 603.234375 1142.257812 607.199219 1142.257812 C 609.710938 1142.257812 614.285156 1137.570312 610.3125 1137.570312 " fill-opacity="1" fill-rule="nonzero"/><path fill="#ffde59" d="M 577.773438 1149.679688 C 579.996094 1149.679688 584.492188 1144.71875 581.445312 1144.71875 C 579.226562 1144.71875 574.734375 1149.679688 577.773438 1149.679688 " fill-opacity="1" fill-rule="nonzero"/><path fill="#ffde59" d="M 552.753906 1156.179688 C 557.242188 1156.179688 555.699219 1150.972656 551.824219 1150.972656 C 547.328125 1150.972656 548.882812 1156.179688 552.753906 1156.179688 " fill-opacity="1" fill-rule="nonzero"/><path fill="#ffde59" d="M 550.957031 1131.492188 C 550.953125 1130.257812 550.679688 1129.410156 549.820312 1128.484375 C 549.476562 1128.128906 548.484375 1128.25 548.089844 1128.304688 C 547.21875 1128.414062 546.359375 1128.679688 545.566406 1129.054688 C 544.910156 1129.355469 542.945312 1130.359375 543.824219 1131.300781 C 544.453125 1131.972656 544.507812 1132.886719 544.507812 1133.757812 C 544.511719 1135 550.960938 1133.65625 550.957031 1131.492188 " fill-opacity="1" fill-rule="nonzero"/><path fill="#ffde59" d="M 536.617188 1106.835938 C 534.683594 1106.835938 531.050781 1111.046875 531.523438 1111.046875 C 533.457031 1111.046875 537.085938 1106.835938 536.617188 1106.835938 " fill-opacity="1" fill-rule="nonzero"/><path fill="#ffde59" d="M 546.574219 1095.65625 C 546.683594 1093.972656 544.886719 1093.007812 543.449219 1092.847656 C 542.140625 1092.707031 539.949219 1093.21875 539.796875 1094.851562 C 538.6875 1095.226562 537.675781 1096.121094 538.011719 1097.382812 C 538.445312 1099.035156 540.507812 1099.640625 542 1099.542969 C 544.105469 1099.410156 546.425781 1097.945312 546.574219 1095.65625 " fill-opacity="1" fill-rule="nonzero"/><path fill="#ffde59" d="M 559.226562 1084.363281 C 559.226562 1082.828125 559.429688 1081.578125 560.109375 1080.175781 C 560.703125 1078.957031 557.796875 1079.195312 557.386719 1079.261719 C 556.144531 1079.46875 554.183594 1079.972656 553.570312 1081.238281 C 552.792969 1082.847656 552.632812 1084.382812 552.632812 1086.15625 C 552.632812 1087.59375 559.222656 1086.511719 559.226562 1084.363281 " fill-opacity="1" fill-rule="nonzero"/><path fill="#ffde59" d="M 629.695312 1130.59375 C 628.527344 1131.402344 627.523438 1133.3125 628.761719 1134.546875 C 629.363281 1135.152344 629.972656 1135.761719 630.582031 1136.367188 C 630.910156 1136.695312 631.296875 1136.917969 631.707031 1137.058594 L 631.707031 1129.863281 C 630.992188 1129.9375 630.285156 1130.1875 629.695312 1130.59375 " fill-opacity="1" fill-rule="nonzero"/><path fill="#ffde59" d="M 534.902344 1174.890625 C 534.105469 1175.007812 533.300781 1175.160156 532.535156 1175.40625 C 532.394531 1175.453125 531.605469 1175.652344 531.605469 1175.941406 L 531.605469 1179.585938 C 531.605469 1180.136719 534.820312 1179.664062 535.0625 1179.625 C 535.859375 1179.503906 536.660156 1179.351562 537.429688 1179.109375 C 537.566406 1179.066406 538.359375 1178.867188 538.359375 1178.578125 L 538.359375 1174.9375 C 538.359375 1174.382812 535.140625 1174.851562 534.902344 1174.890625 " fill-opacity="1" fill-rule="nonzero"/><path fill="#ffde59" d="M 533.5625 1168.566406 C 535.058594 1167.902344 534.644531 1166.222656 533.699219 1165.277344 C 533.09375 1164.671875 532.488281 1164.066406 531.878906 1163.457031 C 530.777344 1162.355469 528.808594 1161.597656 527.289062 1162.269531 C 525.796875 1162.933594 526.207031 1164.609375 527.152344 1165.554688 C 527.757812 1166.164062 528.367188 1166.769531 528.976562 1167.375 C 530.078125 1168.476562 532.050781 1169.238281 533.5625 1168.566406 " fill-opacity="1" fill-rule="nonzero"/><path fill="#ffde59" d="M 492.417969 1118.613281 L 492.417969 1123.167969 C 492.417969 1124.636719 494.503906 1125.167969 495.636719 1125.285156 C 496.515625 1125.378906 499.210938 1125.3125 499.210938 1123.863281 L 499.210938 1119.3125 C 499.210938 1117.84375 497.128906 1117.308594 496 1117.195312 C 495.113281 1117.105469 492.417969 1117.167969 492.417969 1118.613281 " fill-opacity="1" fill-rule="nonzero"/><path fill="#ffde59" d="M 503.304688 1098.71875 C 501.691406 1098.777344 500.175781 1100.296875 499.664062 1101.746094 C 498.707031 1104.449219 497.058594 1106.8125 495.480469 1109.183594 C 494.824219 1110.167969 494.394531 1112.242188 495.914062 1112.714844 C 497.488281 1113.203125 499.023438 1111.691406 499.792969 1110.523438 C 501.6875 1107.683594 503.578125 1104.804688 504.722656 1101.566406 C 505.148438 1100.359375 504.953125 1098.660156 503.304688 1098.71875 " fill-opacity="1" fill-rule="nonzero"/><path fill="#ffde59" d="M 502.105469 1084.535156 C 502.804688 1083.75 504.40625 1082.136719 504.378906 1080.96875 C 504.3125 1078.207031 503.53125 1075.535156 503.464844 1072.769531 C 503.445312 1071.957031 501.46875 1074.027344 501.367188 1074.144531 C 500.671875 1074.933594 499.070312 1076.542969 499.09375 1077.710938 C 499.15625 1080.472656 499.945312 1083.148438 500.003906 1085.90625 C 500.027344 1086.722656 502.003906 1084.648438 502.105469 1084.535156 " fill-opacity="1" fill-rule="nonzero"/><path fill="#ffde59" d="M 525.035156 1131.765625 C 520.292969 1131.765625 524.230469 1133.484375 526.714844 1133.484375 C 531.453125 1133.484375 527.515625 1131.765625 525.035156 1131.765625 " fill-opacity="1" fill-rule="nonzero"/><path fill="#ffde59" d="M 489.875 1107.886719 C 485.414062 1107.886719 486.785156 1113.640625 490.832031 1113.640625 C 495.289062 1113.640625 493.914062 1107.886719 489.875 1107.886719 " fill-opacity="1" fill-rule="nonzero"/><path fill="#ffde59" d="M 507.855469 1077.554688 C 505.261719 1077.554688 502.757812 1083.851562 505.632812 1083.851562 C 508.230469 1083.851562 510.734375 1077.554688 507.855469 1077.554688 " fill-opacity="1" fill-rule="nonzero"/><path fill="#ffde59" d="M 525.566406 1084.835938 C 521.96875 1084.835938 519.8125 1089.328125 524.359375 1089.328125 C 527.953125 1089.328125 530.109375 1084.835938 525.566406 1084.835938 " fill-opacity="1" fill-rule="nonzero"/><path fill="#ffde59" d="M 496.359375 1051.648438 C 497.3125 1053.621094 500.8125 1051.460938 499.84375 1049.460938 C 498.378906 1046.4375 497.378906 1043.195312 496.316406 1040.019531 C 495.578125 1037.792969 491.804688 1039.328125 492.484375 1041.363281 C 493.640625 1044.832031 494.761719 1048.34375 496.359375 1051.648438 " fill-opacity="1" fill-rule="nonzero"/><path fill="#ffde59" d="M 525.976562 1105.660156 C 525.890625 1102.199219 524.359375 1098.8125 521.996094 1096.324219 C 520.742188 1095.007812 517.179688 1097.015625 518.597656 1098.503906 C 520.617188 1100.628906 521.945312 1103.492188 522.015625 1106.441406 C 522.070312 1108.507812 526.019531 1107.472656 525.976562 1105.660156 " fill-opacity="1" fill-rule="nonzero"/><path fill="#ffde59" d="M 525.960938 1109.117188 C 524.539062 1109.117188 522.957031 1112.84375 524.492188 1112.84375 C 525.917969 1112.84375 527.5 1109.117188 525.960938 1109.117188 " fill-opacity="1" fill-rule="nonzero"/><path fill="#ffde59" d="M 546.832031 1110.179688 C 546.246094 1112.117188 550.050781 1110.753906 550.488281 1109.316406 C 552.695312 1101.96875 551.863281 1094.777344 549.160156 1087.683594 C 548.609375 1086.234375 545.070312 1088.269531 545.6875 1089.882812 C 545.800781 1090.179688 545.910156 1090.480469 546.015625 1090.78125 C 545.632812 1090.695312 545.117188 1090.855469 544.816406 1091.054688 C 544.003906 1091.589844 543.402344 1092.527344 543.402344 1093.515625 L 543.402344 1097.214844 C 543.402344 1098.203125 544.578125 1097.957031 545.101562 1097.613281 C 545.914062 1097.074219 546.515625 1096.140625 546.515625 1095.152344 L 546.515625 1092.269531 C 548.34375 1098.152344 548.648438 1104.132812 546.832031 1110.179688 " fill-opacity="1" fill-rule="nonzero"/><path fill="#ffde59" d="M 490.484375 1073.546875 L 489.25 1073.546875 C 488.320312 1073.546875 487.304688 1074.222656 487.4375 1075.253906 C 487.574219 1076.316406 488.71875 1076.890625 489.6875 1076.890625 L 490.921875 1076.890625 C 491.847656 1076.890625 492.863281 1076.210938 492.730469 1075.179688 C 492.59375 1074.121094 491.449219 1073.546875 490.484375 1073.546875 " fill-opacity="1" fill-rule="nonzero"/><path fill="#ffde59" d="M 486.199219 1057.652344 C 486.296875 1059.433594 487.6875 1060.722656 488.875 1061.910156 C 489.546875 1062.585938 490.675781 1062.800781 491.601562 1062.675781 C 491.804688 1062.648438 492.078125 1062.554688 492.304688 1062.425781 C 491.78125 1064.175781 491.421875 1065.972656 490.644531 1067.632812 C 490.367188 1068.238281 490.1875 1069.527344 491.128906 1069.660156 C 492.082031 1069.792969 492.878906 1068.742188 493.222656 1068.003906 C 494.328125 1065.621094 494.582031 1062.972656 495.691406 1060.601562 C 495.964844 1060 496.148438 1058.714844 495.203125 1058.578125 C 494.25 1058.445312 493.457031 1059.496094 493.113281 1060.238281 C 492.917969 1060.652344 492.757812 1061.078125 492.605469 1061.503906 L 492.53125 1061.402344 C 491.722656 1060.59375 490.339844 1059.496094 490.269531 1058.25 C 490.21875 1057.378906 489.09375 1057.042969 488.378906 1056.941406 C 487.945312 1056.878906 486.15625 1056.816406 486.199219 1057.652344 " fill-opacity="1" fill-rule="nonzero"/><path fill="#ffde59" d="M 553.199219 1059.847656 C 552.015625 1059.847656 550.371094 1063.457031 551.511719 1063.457031 C 552.703125 1063.457031 554.347656 1059.847656 553.199219 1059.847656 " fill-opacity="1" fill-rule="nonzero"/><path fill="#ffde59" d="M 513.347656 1070.285156 C 513.683594 1069.941406 513.996094 1069.566406 514.296875 1069.183594 C 514.597656 1068.804688 514.890625 1068.414062 515.148438 1068.003906 C 515.246094 1067.855469 515.410156 1067.632812 515.402344 1067.4375 C 515.367188 1066.390625 514.210938 1066.023438 514.171875 1064.972656 L 513.683594 1065.355469 C 513.34375 1065.703125 513.03125 1066.078125 512.730469 1066.453125 C 512.425781 1066.835938 512.140625 1067.222656 511.878906 1067.632812 C 511.777344 1067.785156 511.613281 1068.003906 511.625 1068.199219 C 511.664062 1069.246094 512.8125 1069.613281 512.859375 1070.667969 L 513.347656 1070.285156 " fill-opacity="1" fill-rule="nonzero"/><path fill="#ffde59" d="M 498.796875 1036.308594 L 498.796875 1032.609375 C 498.796875 1031.121094 494.941406 1029.804688 494.941406 1031.496094 L 494.941406 1035.203125 C 494.941406 1036.6875 498.796875 1038.007812 498.796875 1036.308594 " fill-opacity="1" fill-rule="nonzero"/><path fill="#ffde59" d="M 513.542969 1134.203125 C 509.859375 1135.046875 507.003906 1134.28125 504.785156 1131.132812 C 503.683594 1129.574219 499.90625 1130.816406 501.277344 1132.761719 C 504.464844 1137.28125 509.542969 1138.277344 514.71875 1137.089844 C 517.347656 1136.488281 515.800781 1133.683594 513.542969 1134.203125 " fill-opacity="1" fill-rule="nonzero"/><path fill="#ffde59" d="M 449.226562 1056.5 C 453.585938 1062.964844 457.871094 1069.476562 462.089844 1076.039062 C 462.796875 1075.132812 463.6875 1073.863281 463.347656 1073.425781 C 458.332031 1066.988281 454.652344 1059.734375 451.015625 1052.46875 C 451.167969 1052.753906 448.523438 1055.09375 448.996094 1056.042969 L 449.226562 1056.5 " fill-opacity="1" fill-rule="nonzero"/><path fill="#ffde59" d="M 465.507812 1020.042969 C 467.96875 1021.324219 470.101562 1023.488281 471.382812 1025.945312 C 471.917969 1026.976562 475.605469 1026.054688 475.492188 1025.832031 C 474.046875 1023.074219 471.796875 1020.84375 469.039062 1019.402344 C 468.277344 1019.007812 467.027344 1019.152344 466.222656 1019.289062 C 465.875 1019.351562 464.742188 1019.644531 465.507812 1020.042969 " fill-opacity="1" fill-rule="nonzero"/><path fill="#ffde59" d="M 509.070312 1073.382812 C 508.054688 1073.351562 507.085938 1074.191406 507.15625 1075.234375 C 507.238281 1076.332031 508.257812 1076.988281 509.273438 1077.042969 L 509.324219 1077.0625 L 509.335938 1077.0625 L 509.835938 1077.367188 L 510.296875 1077.746094 C 511.039062 1078.476562 512.433594 1078.457031 513.183594 1077.753906 C 514 1076.984375 513.757812 1075.875 513.03125 1075.160156 C 511.988281 1074.128906 510.539062 1073.4375 509.070312 1073.382812 " fill-opacity="1" fill-rule="nonzero"/><path fill="#ffde59" d="M 506.78125 1055.71875 C 507.210938 1055.488281 507.605469 1055.148438 507.894531 1054.738281 C 508.074219 1054.734375 508.25 1054.734375 508.433594 1054.734375 C 509.390625 1054.734375 510.300781 1053.773438 510.660156 1052.964844 C 510.972656 1052.277344 510.921875 1051.304688 509.964844 1051.304688 C 509.042969 1051.304688 508.019531 1051.324219 507.207031 1051.8125 C 505.984375 1052.542969 505.132812 1053.691406 505.082031 1055.140625 C 505.042969 1056.128906 506.199219 1056.035156 506.78125 1055.71875 " fill-opacity="1" fill-rule="nonzero"/><path fill="#ffde59" d="M 497.023438 1083.714844 C 497 1083.933594 496.976562 1084.359375 497.226562 1084.476562 C 497.492188 1084.601562 497.796875 1084.300781 497.953125 1084.148438 L 500.414062 1081.6875 C 501.074219 1081.023438 501.554688 1079.972656 501.648438 1079.050781 C 501.664062 1078.832031 501.691406 1078.410156 501.433594 1078.292969 C 501.175781 1078.167969 500.867188 1078.46875 500.714844 1078.617188 L 498.25 1081.085938 C 497.585938 1081.742188 497.109375 1082.792969 497.023438 1083.714844 " fill-opacity="1" fill-rule="nonzero"/><path fill="#ffde59" d="M 535.265625 1078.082031 C 539.730469 1078.082031 536.101562 1073.375 533.011719 1073.375 C 528.550781 1073.375 532.179688 1078.082031 535.265625 1078.082031 " fill-opacity="1" fill-rule="nonzero"/><path fill="#ffde59" d="M 536.605469 1088.871094 C 534.097656 1088.871094 529.523438 1093.554688 533.492188 1093.554688 C 536.007812 1093.554688 540.578125 1088.871094 536.605469 1088.871094 " fill-opacity="1" fill-rule="nonzero"/><path fill="#ffde59" d="M 504.070312 1100.984375 C 506.289062 1100.984375 510.78125 1096.019531 507.742188 1096.019531 C 505.519531 1096.019531 501.03125 1100.984375 504.070312 1100.984375 " fill-opacity="1" fill-rule="nonzero"/><path fill="#ffde59" d="M 477.253906 1082.792969 C 477.25 1081.558594 476.976562 1080.707031 476.113281 1079.785156 C 475.773438 1079.425781 474.777344 1079.550781 474.382812 1079.601562 C 473.515625 1079.710938 472.652344 1079.980469 471.859375 1080.355469 C 471.203125 1080.65625 469.242188 1081.660156 470.117188 1082.601562 C 470.746094 1083.269531 470.804688 1084.183594 470.804688 1085.058594 C 470.808594 1086.292969 477.253906 1084.957031 477.253906 1082.792969 " fill-opacity="1" fill-rule="nonzero"/><path fill="#ffde59" d="M 462.910156 1058.140625 C 460.980469 1058.140625 457.347656 1062.347656 457.816406 1062.347656 C 459.75 1062.347656 463.378906 1058.140625 462.910156 1058.140625 " fill-opacity="1" fill-rule="nonzero"/><path fill="#ffde59" d="M 472.867188 1046.953125 C 472.976562 1045.269531 471.183594 1044.3125 469.742188 1044.152344 C 468.429688 1044.007812 466.242188 1044.519531 466.089844 1046.15625 C 464.980469 1046.527344 463.96875 1047.421875 464.308594 1048.6875 C 464.738281 1050.339844 466.804688 1050.945312 468.296875 1050.84375 C 470.402344 1050.707031 472.71875 1049.246094 472.867188 1046.953125 " fill-opacity="1" fill-rule="nonzero"/><path fill="#ffde59" d="M 485.519531 1035.664062 C 485.519531 1034.128906 485.722656 1032.871094 486.402344 1031.476562 C 486.996094 1030.253906 484.089844 1030.5 483.683594 1030.5625 C 482.441406 1030.765625 480.476562 1031.277344 479.863281 1032.539062 C 479.085938 1034.148438 478.925781 1035.683594 478.925781 1037.460938 C 478.925781 1038.894531 485.519531 1037.816406 485.519531 1035.664062 " fill-opacity="1" fill-rule="nonzero"/><path fill="#ffde59" d="M 555.992188 1081.894531 C 554.824219 1082.703125 553.820312 1084.613281 555.054688 1085.847656 C 555.660156 1086.453125 556.265625 1087.058594 556.875 1087.667969 C 557.199219 1087.996094 557.589844 1088.21875 558.003906 1088.359375 L 558.003906 1081.167969 C 557.289062 1081.230469 556.582031 1081.488281 555.992188 1081.894531 " fill-opacity="1" fill-rule="nonzero"/><path fill="#ffde59" d="M 537.121094 1152.539062 C 536.140625 1152.539062 535.046875 1152.484375 534.132812 1152.941406 C 533.605469 1153.203125 533.191406 1153.625 532.78125 1154.035156 C 531.777344 1155.042969 534.273438 1156.023438 534.835938 1156.1875 C 536.007812 1156.535156 538.140625 1156.910156 539.140625 1155.910156 L 539.53125 1155.527344 C 540.445312 1155.425781 541.472656 1155.121094 541.09375 1154.246094 C 540.558594 1153.007812 538.289062 1152.539062 537.121094 1152.539062 " fill-opacity="1" fill-rule="nonzero"/><path fill="#ffde59" d="M 430.433594 1029.675781 C 430.175781 1027.816406 429.804688 1025.960938 429.757812 1024.074219 C 429.742188 1023.257812 427.765625 1025.332031 427.660156 1025.445312 L 427.414062 1025.714844 C 428.429688 1027.007812 429.433594 1028.335938 430.433594 1029.675781 " fill-opacity="1" fill-rule="nonzero"/><path fill="#ffde59" d="M 547.960938 1149.214844 C 544.164062 1149.214844 549.1875 1153.445312 551.28125 1153.445312 C 555.082031 1153.445312 550.054688 1149.214844 547.960938 1149.214844 " fill-opacity="1" fill-rule="nonzero"/><path fill="#ffde59" d="M 451.859375 1036.132812 C 448.261719 1036.132812 446.109375 1040.625 450.652344 1040.625 C 454.246094 1040.625 456.402344 1036.132812 451.859375 1036.132812 " fill-opacity="1" fill-rule="nonzero"/><path fill="#ffde59" d="M 580.042969 919.179688 C 581.203125 921.574219 585.433594 918.957031 584.265625 916.535156 C 582.484375 912.875 581.28125 908.949219 579.992188 905.105469 C 579.097656 902.410156 574.53125 904.273438 575.355469 906.730469 C 576.757812 910.933594 578.109375 915.1875 580.042969 919.179688 " fill-opacity="1" fill-rule="nonzero"/><path fill="#ffde59" d="M 615.894531 984.558594 C 615.789062 980.371094 613.941406 976.28125 611.074219 973.265625 C 609.558594 971.671875 605.25 974.101562 606.964844 975.902344 C 609.40625 978.46875 611.019531 981.9375 611.097656 985.507812 C 611.167969 988.007812 615.941406 986.753906 615.894531 984.558594 " fill-opacity="1" fill-rule="nonzero"/><path fill="#ffde59" d="M 615.878906 988.746094 C 614.152344 988.746094 612.242188 993.257812 614.101562 993.257812 C 615.820312 993.257812 617.738281 988.746094 615.878906 988.746094 " fill-opacity="1" fill-rule="nonzero"/><path fill="#ffde59" d="M 641.136719 990.03125 C 640.433594 992.378906 645.039062 990.726562 645.566406 988.988281 C 648.238281 980.09375 647.230469 971.390625 643.960938 962.800781 C 643.289062 961.042969 639.007812 963.511719 639.757812 965.464844 C 639.894531 965.828125 640.019531 966.191406 640.148438 966.550781 C 639.6875 966.449219 639.0625 966.640625 638.703125 966.878906 C 637.714844 967.53125 636.988281 968.667969 636.988281 969.859375 L 636.988281 974.34375 C 636.988281 975.535156 638.410156 975.238281 639.046875 974.820312 C 640.023438 974.167969 640.753906 973.039062 640.753906 971.839844 L 640.753906 968.363281 C 642.96875 975.46875 643.339844 982.714844 641.136719 990.03125 " fill-opacity="1" fill-rule="nonzero"/><path fill="#ffde59" d="M 572.933594 945.691406 L 571.4375 945.691406 C 570.3125 945.691406 569.082031 946.511719 569.246094 947.753906 C 569.410156 949.039062 570.796875 949.738281 571.972656 949.738281 L 573.464844 949.738281 C 574.582031 949.738281 575.808594 948.917969 575.65625 947.671875 C 575.484375 946.386719 574.101562 945.691406 572.933594 945.691406 " fill-opacity="1" fill-rule="nonzero"/><path fill="#ffde59" d="M 567.75 926.449219 C 567.863281 928.609375 569.550781 930.164062 570.980469 931.601562 C 571.800781 932.425781 573.164062 932.683594 574.289062 932.53125 C 574.53125 932.496094 574.859375 932.390625 575.136719 932.226562 C 574.503906 934.347656 574.070312 936.523438 573.125 938.535156 C 572.789062 939.265625 572.574219 940.820312 573.71875 940.984375 C 574.871094 941.152344 575.832031 939.875 576.246094 938.980469 C 577.589844 936.097656 577.894531 932.890625 579.234375 930.023438 C 579.570312 929.296875 579.785156 927.730469 578.648438 927.570312 C 577.492188 927.40625 576.53125 928.683594 576.117188 929.578125 C 575.875 930.082031 575.6875 930.597656 575.503906 931.113281 L 575.414062 930.984375 C 574.433594 930.011719 572.757812 928.683594 572.675781 927.171875 C 572.613281 926.121094 571.253906 925.71875 570.382812 925.589844 C 569.859375 925.515625 567.695312 925.4375 567.75 926.449219 " fill-opacity="1" fill-rule="nonzero"/><path fill="#ffde59" d="M 648.847656 929.109375 C 647.414062 929.109375 645.425781 933.480469 646.800781 933.480469 C 648.246094 933.480469 650.234375 929.109375 648.847656 929.109375 " fill-opacity="1" fill-rule="nonzero"/><path fill="#ffde59" d="M 600.605469 941.742188 C 601.015625 941.320312 601.394531 940.871094 601.757812 940.40625 C 602.121094 939.949219 602.476562 939.480469 602.785156 938.980469 C 602.90625 938.800781 603.105469 938.535156 603.097656 938.296875 C 603.050781 937.023438 601.652344 936.582031 601.609375 935.3125 L 601.015625 935.769531 C 600.605469 936.195312 600.230469 936.648438 599.859375 937.105469 C 599.492188 937.566406 599.148438 938.039062 598.828125 938.53125 C 598.714844 938.71875 598.511719 938.980469 598.523438 939.214844 C 598.574219 940.484375 599.964844 940.933594 600.011719 942.203125 L 600.605469 941.742188 " fill-opacity="1" fill-rule="nonzero"/><path fill="#ffde59" d="M 582.992188 900.617188 L 582.992188 896.136719 C 582.992188 894.335938 578.328125 892.738281 578.328125 894.796875 L 578.328125 899.277344 C 578.328125 901.074219 582.992188 902.671875 582.992188 900.617188 " fill-opacity="1" fill-rule="nonzero"/><path fill="#ffde59" d="M 600.847656 1019.113281 C 596.386719 1020.128906 592.929688 1019.203125 590.242188 1015.394531 C 588.914062 1013.511719 584.339844 1015.011719 586 1017.363281 C 589.859375 1022.839844 596 1024.042969 602.269531 1022.605469 C 605.449219 1021.875 603.582031 1018.484375 600.847656 1019.113281 " fill-opacity="1" fill-rule="nonzero"/><path fill="#ffde59" d="M 563.734375 991.230469 C 563.839844 990.113281 562.308594 989.433594 561.402344 989.414062 C 559.496094 989.375 558.441406 988.355469 557.140625 987.058594 C 555.683594 985.601562 551.289062 986.847656 553.433594 988.980469 C 555.570312 991.121094 557.996094 992.515625 561.109375 992.589844 C 562.015625 992.613281 563.621094 992.445312 563.734375 991.230469 " fill-opacity="1" fill-rule="nonzero"/><path fill="#ffde59" d="M 540.082031 945.546875 C 534.011719 937.753906 529.5625 928.976562 525.160156 920.171875 C 525.34375 920.523438 522.140625 923.355469 522.714844 924.503906 C 527.117188 933.304688 531.566406 942.089844 537.640625 949.878906 C 537.589844 949.8125 540.746094 946.394531 540.082031 945.546875 " fill-opacity="1" fill-rule="nonzero"/><path fill="#ffde59" d="M 542.703125 880.921875 C 545.675781 882.480469 548.257812 885.097656 549.8125 888.074219 C 550.460938 889.316406 554.925781 888.195312 554.785156 887.933594 C 553.035156 884.59375 550.316406 881.898438 546.972656 880.15625 C 546.050781 879.671875 544.539062 879.84375 543.5625 880.015625 C 543.144531 880.09375 541.777344 880.441406 542.703125 880.921875 " fill-opacity="1" fill-rule="nonzero"/><path fill="#ffde59" d="M 595.429688 945.496094 C 594.203125 945.453125 593.023438 946.46875 593.117188 947.730469 C 593.210938 949.0625 594.445312 949.851562 595.675781 949.921875 L 595.738281 949.945312 L 595.753906 949.949219 L 596.355469 950.308594 C 596.546875 950.457031 596.742188 950.601562 596.914062 950.769531 C 597.816406 951.660156 599.5 951.628906 600.40625 950.785156 C 601.398438 949.851562 601.105469 948.511719 600.230469 947.644531 C 598.960938 946.394531 597.210938 945.554688 595.429688 945.496094 " fill-opacity="1" fill-rule="nonzero"/><path fill="#ffde59" d="M 592.664062 924.113281 C 593.175781 923.832031 593.65625 923.417969 594.007812 922.925781 C 594.222656 922.917969 594.441406 922.917969 594.660156 922.917969 C 595.820312 922.917969 596.925781 921.757812 597.355469 920.78125 C 597.730469 919.941406 597.671875 918.769531 596.511719 918.773438 C 595.398438 918.773438 594.160156 918.789062 593.175781 919.375 C 591.695312 920.269531 590.664062 921.65625 590.597656 923.410156 C 590.554688 924.609375 591.953125 924.492188 592.664062 924.113281 " fill-opacity="1" fill-rule="nonzero"/><path fill="#ffde59" d="M 580.847656 958.003906 C 580.824219 958.261719 580.792969 958.777344 581.097656 958.925781 C 581.410156 959.070312 581.78125 958.710938 581.972656 958.527344 L 584.957031 955.542969 C 585.753906 954.746094 586.332031 953.46875 586.445312 952.355469 C 586.464844 952.089844 586.5 951.574219 586.1875 951.433594 C 585.875 951.285156 585.5 951.648438 585.316406 951.824219 L 582.335938 954.816406 C 581.53125 955.613281 580.953125 956.882812 580.847656 958.003906 " fill-opacity="1" fill-rule="nonzero"/><path fill="#ffde59" d="M 627.140625 951.175781 C 632.542969 951.175781 628.152344 945.488281 624.414062 945.488281 C 619.007812 945.488281 623.402344 951.175781 627.140625 951.175781 " fill-opacity="1" fill-rule="nonzero"/><path fill="#ffde59" d="M 628.761719 964.238281 C 625.726562 964.238281 620.191406 969.910156 624.996094 969.910156 C 628.035156 969.910156 633.570312 964.238281 628.761719 964.238281 " fill-opacity="1" fill-rule="nonzero"/><path fill="#ffde59" d="M 589.375 978.898438 C 592.066406 978.898438 597.5 972.890625 593.820312 972.890625 C 591.136719 972.890625 585.699219 978.898438 589.375 978.898438 " fill-opacity="1" fill-rule="nonzero"/><path fill="#ffde59" d="M 559.089844 986.765625 C 564.523438 986.765625 562.648438 980.460938 557.964844 980.460938 C 552.523438 980.460938 554.402344 986.765625 559.089844 986.765625 " fill-opacity="1" fill-rule="nonzero"/><path fill="#ffde59" d="M 556.914062 956.882812 C 556.910156 955.390625 556.582031 954.359375 555.535156 953.242188 C 555.128906 952.808594 553.917969 952.957031 553.445312 953.019531 C 552.394531 953.148438 551.351562 953.476562 550.390625 953.933594 C 549.59375 954.300781 547.21875 955.511719 548.28125 956.648438 C 549.042969 957.457031 549.109375 958.570312 549.109375 959.625 C 549.117188 961.121094 556.917969 959.503906 556.914062 956.882812 " fill-opacity="1" fill-rule="nonzero"/><path fill="#ffde59" d="M 539.554688 927.039062 C 537.21875 927.039062 532.820312 932.132812 533.390625 932.132812 C 535.730469 932.132812 540.125 927.039062 539.554688 927.039062 " fill-opacity="1" fill-rule="nonzero"/><path fill="#ffde59" d="M 551.609375 913.503906 C 551.746094 911.464844 549.570312 910.300781 547.824219 910.109375 C 546.238281 909.933594 543.589844 910.554688 543.40625 912.53125 C 542.0625 912.984375 540.835938 914.0625 541.25 915.59375 C 541.769531 917.597656 544.265625 918.324219 546.074219 918.210938 C 548.625 918.046875 551.425781 916.277344 551.609375 913.503906 " fill-opacity="1" fill-rule="nonzero"/><path fill="#ffde59" d="M 566.925781 899.835938 C 566.925781 897.972656 567.171875 896.457031 567.992188 894.765625 C 568.714844 893.285156 565.191406 893.582031 564.699219 893.65625 C 563.195312 893.90625 560.820312 894.519531 560.082031 896.050781 C 559.132812 898 558.945312 899.859375 558.945312 902.003906 C 558.945312 903.746094 566.917969 902.4375 566.925781 899.835938 " fill-opacity="1" fill-rule="nonzero"/><path fill="#ffde59" d="M 652.226562 955.792969 C 650.8125 956.773438 649.597656 959.089844 651.09375 960.578125 C 651.824219 961.3125 652.558594 962.046875 653.296875 962.785156 C 653.695312 963.179688 654.15625 963.453125 654.65625 963.617188 L 654.65625 954.910156 C 653.792969 954.992188 652.9375 955.300781 652.226562 955.792969 " fill-opacity="1" fill-rule="nonzero"/><path fill="#ffde59" d="M 629.382812 1041.304688 C 628.199219 1041.308594 626.875 1041.238281 625.765625 1041.792969 C 625.132812 1042.109375 624.628906 1042.625 624.128906 1043.117188 C 622.914062 1044.335938 625.9375 1045.523438 626.613281 1045.722656 C 628.035156 1046.144531 630.613281 1046.59375 631.832031 1045.386719 L 632.304688 1044.929688 C 633.410156 1044.796875 634.652344 1044.429688 634.195312 1043.371094 C 633.546875 1041.871094 630.792969 1041.304688 629.382812 1041.304688 " fill-opacity="1" fill-rule="nonzero"/><path fill="#ffde59" d="M 586.273438 1051.234375 C 581.808594 1051.234375 577.589844 1050.984375 573.472656 1049.070312 C 572.269531 1048.507812 569.617188 1049.296875 568.402344 1049.523438 C 568.132812 1049.566406 565.164062 1050.253906 565.625 1050.464844 C 569.984375 1052.492188 574.550781 1052.707031 579.28125 1052.707031 C 581.160156 1052.707031 583.0625 1052.417969 584.898438 1052.03125 C 585.136719 1051.984375 587.898438 1051.234375 586.273438 1051.234375 " fill-opacity="1" fill-rule="nonzero"/><path fill="#ffde59" d="M 537.480469 1009.414062 C 536.515625 1009.558594 535.546875 1009.742188 534.617188 1010.039062 C 534.445312 1010.089844 533.488281 1010.332031 533.488281 1010.683594 L 533.488281 1015.097656 C 533.488281 1015.765625 537.378906 1015.191406 537.675781 1015.144531 C 538.636719 1015 539.609375 1014.816406 540.539062 1014.519531 C 540.703125 1014.464844 541.664062 1014.230469 541.664062 1013.875 L 541.664062 1009.464844 C 541.664062 1008.792969 537.773438 1009.367188 537.480469 1009.414062 " fill-opacity="1" fill-rule="nonzero"/><path fill="#ffde59" d="M 535.863281 1001.753906 C 537.667969 1000.953125 537.167969 998.917969 536.027344 997.773438 C 535.292969 997.039062 534.558594 996.304688 533.824219 995.574219 C 532.488281 994.238281 530.101562 993.320312 528.265625 994.132812 C 526.457031 994.9375 526.957031 996.972656 528.101562 998.113281 C 528.832031 998.851562 529.566406 999.582031 530.308594 1000.316406 C 531.640625 1001.652344 534.03125 1002.574219 535.863281 1001.753906 " fill-opacity="1" fill-rule="nonzero"/><path fill="#ffde59" d="M 487.246094 985.898438 C 481.6875 985.898438 484.777344 990.136719 488.683594 990.136719 C 494.242188 990.136719 491.152344 985.898438 487.246094 985.898438 " fill-opacity="1" fill-rule="nonzero"/><path fill="#ffde59" d="M 485.671875 963.6875 C 485.671875 962.628906 483.378906 965.597656 483.3125 965.691406 C 482.457031 967.058594 481.4375 968.792969 481.4375 970.460938 L 481.4375 980.382812 C 481.4375 981.4375 483.734375 978.480469 483.796875 978.378906 C 484.652344 977.011719 485.671875 975.277344 485.671875 973.613281 L 485.671875 963.6875 " fill-opacity="1" fill-rule="nonzero"/><path fill="#ffde59" d="M 486.054688 941.292969 L 486.054688 946.804688 C 486.054688 948.582031 488.582031 949.226562 489.953125 949.367188 C 491.015625 949.480469 494.28125 949.398438 494.28125 947.652344 L 494.28125 942.140625 C 494.28125 940.363281 491.757812 939.710938 490.390625 939.574219 C 489.320312 939.460938 486.054688 939.542969 486.054688 941.292969 " fill-opacity="1" fill-rule="nonzero"/><path fill="#ffde59" d="M 499.234375 917.210938 C 497.28125 917.28125 495.445312 919.121094 494.828125 920.875 C 493.667969 924.148438 491.675781 927.007812 489.765625 929.878906 C 488.96875 931.070312 488.449219 933.578125 490.285156 934.152344 C 492.191406 934.746094 494.050781 932.910156 494.988281 931.5 C 497.273438 928.0625 499.5625 924.578125 500.949219 920.65625 C 501.46875 919.199219 501.230469 917.140625 499.234375 917.210938 " fill-opacity="1" fill-rule="nonzero"/><path fill="#ffde59" d="M 497.785156 900.042969 C 498.628906 899.082031 500.566406 897.140625 500.53125 895.722656 C 500.453125 892.378906 499.507812 889.144531 499.429688 885.800781 C 499.40625 884.816406 497.011719 887.324219 496.886719 887.464844 C 496.046875 888.421875 494.109375 890.367188 494.140625 891.78125 C 494.214844 895.121094 495.164062 898.363281 495.238281 901.707031 C 495.265625 902.6875 497.660156 900.183594 497.785156 900.042969 " fill-opacity="1" fill-rule="nonzero"/><path fill="#ffde59" d="M 642.503906 1037.28125 C 637.910156 1037.28125 643.992188 1042.402344 646.523438 1042.402344 C 651.128906 1042.402344 645.039062 1037.28125 642.503906 1037.28125 " fill-opacity="1" fill-rule="nonzero"/><path fill="#ffde59" d="M 566.472656 1035.957031 C 564.042969 1035.957031 558.265625 1041.519531 561.597656 1041.519531 C 564.027344 1041.519531 569.804688 1035.957031 566.472656 1035.957031 " fill-opacity="1" fill-rule="nonzero"/><path fill="#ffde59" d="M 497.671875 1017.605469 C 494.898438 1017.605469 491.007812 1024.59375 493.6875 1024.59375 C 496.464844 1024.59375 500.359375 1017.605469 497.671875 1017.605469 " fill-opacity="1" fill-rule="nonzero"/><path fill="#ffde59" d="M 525.535156 957.210938 C 519.796875 957.210938 524.5625 959.292969 527.570312 959.292969 C 533.308594 959.292969 528.542969 957.210938 525.535156 957.210938 " fill-opacity="1" fill-rule="nonzero"/><path fill="#ffde59" d="M 482.976562 928.3125 C 477.578125 928.3125 479.238281 935.273438 484.136719 935.273438 C 489.53125 935.273438 487.871094 928.3125 482.976562 928.3125 " fill-opacity="1" fill-rule="nonzero"/><path fill="#ffde59" d="M 504.746094 891.597656 C 501.601562 891.597656 498.570312 899.210938 502.050781 899.210938 C 505.195312 899.210938 508.230469 891.597656 504.746094 891.597656 " fill-opacity="1" fill-rule="nonzero"/><path fill="#ffde59" d="M 526.179688 900.40625 C 521.828125 900.40625 519.21875 905.839844 524.71875 905.839844 C 529.074219 905.839844 531.675781 900.40625 526.179688 900.40625 " fill-opacity="1" fill-rule="nonzero"/><path fill="#ffde59" d="M 655.460938 1062.4375 C 656.417969 1064.414062 659.914062 1062.253906 658.945312 1060.253906 C 657.476562 1057.234375 656.480469 1053.984375 655.417969 1050.808594 C 654.675781 1048.582031 650.90625 1050.125 651.582031 1052.15625 C 652.746094 1055.628906 653.863281 1059.136719 655.460938 1062.4375 " fill-opacity="1" fill-rule="nonzero"/><path fill="#ffde59" d="M 649.585938 1084.335938 L 648.351562 1084.335938 C 647.425781 1084.335938 646.40625 1085.019531 646.539062 1086.046875 C 646.675781 1087.109375 647.816406 1087.683594 648.789062 1087.683594 L 650.023438 1087.683594 C 650.949219 1087.683594 651.960938 1087.007812 651.832031 1085.972656 C 651.695312 1084.914062 650.550781 1084.335938 649.585938 1084.335938 " fill-opacity="1" fill-rule="nonzero"/><path fill="#ffde59" d="M 645.300781 1068.445312 C 645.398438 1070.222656 646.789062 1071.511719 647.972656 1072.699219 C 648.652344 1073.382812 649.773438 1073.59375 650.703125 1073.46875 C 650.90625 1073.4375 651.179688 1073.351562 651.40625 1073.21875 C 650.882812 1074.96875 650.523438 1076.765625 649.746094 1078.429688 C 649.46875 1079.03125 649.289062 1080.320312 650.230469 1080.453125 C 651.183594 1080.589844 651.980469 1079.535156 652.320312 1078.796875 C 653.425781 1076.414062 653.683594 1073.765625 654.792969 1071.398438 C 655.066406 1070.796875 655.25 1069.503906 654.308594 1069.371094 C 653.355469 1069.238281 652.558594 1070.292969 652.214844 1071.027344 C 652.019531 1071.441406 651.863281 1071.867188 651.707031 1072.296875 L 651.636719 1072.191406 C 650.820312 1071.390625 649.441406 1070.292969 649.371094 1069.039062 C 649.320312 1068.171875 648.199219 1067.839844 647.480469 1067.734375 C 647.050781 1067.667969 645.253906 1067.613281 645.300781 1068.445312 " fill-opacity="1" fill-rule="nonzero"/><path fill="#ffde59" d="M 672.449219 1081.078125 C 672.785156 1080.730469 673.09375 1080.355469 673.398438 1079.972656 C 673.699219 1079.59375 673.988281 1079.207031 674.25 1078.800781 C 674.347656 1078.648438 674.515625 1078.425781 674.507812 1078.230469 C 674.464844 1077.183594 673.3125 1076.8125 673.277344 1075.765625 L 672.785156 1076.140625 C 672.445312 1076.488281 672.136719 1076.867188 671.828125 1077.242188 C 671.527344 1077.628906 671.242188 1078.019531 670.980469 1078.425781 C 670.882812 1078.578125 670.71875 1078.796875 670.730469 1078.992188 C 670.765625 1080.039062 671.917969 1080.40625 671.960938 1081.457031 L 672.449219 1081.078125 " fill-opacity="1" fill-rule="nonzero"/><path fill="#ffde59" d="M 657.894531 1047.101562 L 657.894531 1043.398438 C 657.894531 1041.914062 654.042969 1040.59375 654.042969 1042.292969 L 654.042969 1045.996094 C 654.042969 1047.476562 657.894531 1048.800781 657.894531 1047.101562 " fill-opacity="1" fill-rule="nonzero"/><path fill="#ffde59" d="M 641.984375 1121.964844 C 642.070312 1121.03125 640.808594 1120.480469 640.058594 1120.464844 C 638.488281 1120.425781 637.617188 1119.585938 636.539062 1118.511719 C 635.332031 1117.308594 631.703125 1118.339844 633.476562 1120.101562 C 635.242188 1121.871094 637.246094 1123.023438 639.8125 1123.089844 C 640.570312 1123.101562 641.890625 1122.960938 641.984375 1121.964844 " fill-opacity="1" fill-rule="nonzero"/><path fill="#ffde59" d="M 622.449219 1084.21875 C 617.429688 1077.78125 613.757812 1070.527344 610.117188 1063.257812 C 610.269531 1063.550781 607.625 1065.886719 608.097656 1066.839844 C 611.734375 1074.109375 615.410156 1081.367188 620.429688 1087.800781 C 620.386719 1087.742188 622.996094 1084.921875 622.449219 1084.21875 " fill-opacity="1" fill-rule="nonzero"/><path fill="#ffde59" d="M 624.613281 1030.835938 C 627.066406 1032.117188 629.199219 1034.277344 630.484375 1036.742188 C 631.019531 1037.769531 634.707031 1036.84375 634.59375 1036.625 C 633.148438 1033.867188 630.902344 1031.640625 628.136719 1030.199219 C 627.375 1029.800781 626.128906 1029.941406 625.324219 1030.082031 C 624.976562 1030.148438 623.84375 1030.433594 624.613281 1030.835938 " fill-opacity="1" fill-rule="nonzero"/><path fill="#ffde59" d="M 668.171875 1084.175781 C 667.15625 1084.140625 666.1875 1084.984375 666.257812 1086.027344 C 666.339844 1087.121094 667.359375 1087.777344 668.375 1087.835938 L 668.425781 1087.855469 L 668.4375 1087.855469 L 668.933594 1088.152344 L 669.398438 1088.535156 C 670.140625 1089.269531 671.53125 1089.246094 672.285156 1088.546875 C 673.101562 1087.777344 672.859375 1086.667969 672.136719 1085.953125 C 671.085938 1084.921875 669.640625 1084.230469 668.171875 1084.175781 " fill-opacity="1" fill-rule="nonzero"/><path fill="#ffde59" d="M 665.882812 1066.507812 C 666.3125 1066.28125 666.707031 1065.941406 666.996094 1065.53125 C 667.171875 1065.527344 667.351562 1065.527344 667.535156 1065.527344 C 668.492188 1065.527344 669.40625 1064.566406 669.765625 1063.757812 C 670.074219 1063.066406 670.019531 1062.101562 669.066406 1062.101562 C 668.144531 1062.101562 667.125 1062.117188 666.308594 1062.601562 C 665.085938 1063.335938 664.238281 1064.488281 664.183594 1065.933594 C 664.144531 1066.921875 665.300781 1066.828125 665.882812 1066.507812 " fill-opacity="1" fill-rule="nonzero"/><path fill="#ffde59" d="M 656.125 1094.507812 C 656.105469 1094.726562 656.078125 1095.152344 656.328125 1095.269531 C 656.59375 1095.390625 656.898438 1095.09375 657.054688 1094.945312 L 659.519531 1092.472656 C 660.175781 1091.816406 660.652344 1090.769531 660.746094 1089.84375 C 660.769531 1089.625 660.789062 1089.199219 660.535156 1089.082031 C 660.277344 1088.964844 659.96875 1089.257812 659.816406 1089.410156 L 657.355469 1091.875 C 656.691406 1092.535156 656.210938 1093.582031 656.125 1094.507812 " fill-opacity="1" fill-rule="nonzero"/><path fill="#ffde59" d="M 638.148438 1118.273438 C 642.632812 1118.273438 641.089844 1113.066406 637.222656 1113.066406 C 632.726562 1113.066406 634.277344 1118.273438 638.148438 1118.273438 " fill-opacity="1" fill-rule="nonzero"/><path fill="#ffde59" d="M 636.351562 1093.585938 C 636.351562 1092.351562 636.078125 1091.5 635.21875 1090.578125 C 634.875 1090.21875 633.878906 1090.339844 633.484375 1090.394531 C 632.613281 1090.5 631.753906 1090.773438 630.964844 1091.144531 C 630.304688 1091.453125 628.339844 1092.449219 629.214844 1093.390625 C 629.851562 1094.0625 629.90625 1094.976562 629.90625 1095.851562 C 629.90625 1097.089844 636.351562 1095.746094 636.351562 1093.585938 " fill-opacity="1" fill-rule="nonzero"/><path fill="#ffde59" d="M 622.011719 1068.929688 C 620.082031 1068.929688 616.449219 1073.136719 616.917969 1073.136719 C 618.851562 1073.136719 622.480469 1068.929688 622.011719 1068.929688 " fill-opacity="1" fill-rule="nonzero"/><path fill="#ffde59" d="M 631.972656 1057.746094 C 632.078125 1056.0625 630.285156 1055.101562 628.839844 1054.941406 C 627.53125 1054.796875 625.34375 1055.308594 625.191406 1056.945312 C 624.082031 1057.316406 623.070312 1058.210938 623.410156 1059.476562 C 623.84375 1061.128906 625.902344 1061.734375 627.398438 1061.636719 C 629.503906 1061.496094 631.820312 1060.035156 631.972656 1057.746094 " fill-opacity="1" fill-rule="nonzero"/><path fill="#ffde59" d="M 644.621094 1046.457031 C 644.621094 1044.921875 644.824219 1043.664062 645.503906 1042.265625 C 646.097656 1041.046875 643.191406 1041.289062 642.78125 1041.355469 C 641.542969 1041.554688 639.582031 1042.066406 638.96875 1043.328125 C 638.1875 1044.9375 638.03125 1046.476562 638.03125 1048.246094 C 638.03125 1049.6875 644.621094 1048.605469 644.621094 1046.457031 " fill-opacity="1" fill-rule="nonzero"/><path fill="#ffde59" d="M 620.292969 1136.984375 C 619.5 1137.105469 618.695312 1137.25 617.929688 1137.496094 C 617.792969 1137.542969 617 1137.742188 617 1138.03125 L 617 1141.675781 C 617 1142.226562 620.21875 1141.753906 620.457031 1141.722656 C 621.25 1141.601562 622.054688 1141.441406 622.824219 1141.203125 C 622.960938 1141.15625 623.753906 1140.960938 623.753906 1140.671875 L 623.753906 1137.027344 C 623.753906 1136.472656 620.539062 1136.945312 620.292969 1136.984375 " fill-opacity="1" fill-rule="nonzero"/><path fill="#ffde59" d="M 618.960938 1130.65625 C 620.457031 1129.996094 620.042969 1128.316406 619.09375 1127.367188 C 618.488281 1126.757812 617.882812 1126.15625 617.277344 1125.546875 C 616.171875 1124.445312 614.203125 1123.6875 612.683594 1124.363281 C 611.191406 1125.023438 611.601562 1126.699219 612.546875 1127.648438 C 613.152344 1128.257812 613.757812 1128.863281 614.371094 1129.472656 C 615.472656 1130.570312 617.445312 1131.332031 618.960938 1130.65625 " fill-opacity="1" fill-rule="nonzero"/><path fill="#ffde59" d="M 578.792969 1117.558594 C 574.203125 1117.558594 576.757812 1121.0625 579.984375 1121.0625 C 584.578125 1121.0625 582.023438 1117.558594 578.792969 1117.558594 " fill-opacity="1" fill-rule="nonzero"/><path fill="#ffde59" d="M 577.496094 1099.207031 C 577.496094 1098.332031 575.601562 1100.785156 575.546875 1100.859375 C 574.84375 1101.996094 573.996094 1103.421875 573.996094 1104.800781 L 573.996094 1113 C 573.996094 1113.875 575.894531 1111.425781 575.949219 1111.339844 C 576.65625 1110.214844 577.496094 1108.78125 577.496094 1107.40625 L 577.496094 1099.207031 " fill-opacity="1" fill-rule="nonzero"/><path fill="#ffde59" d="M 577.8125 1080.703125 L 577.8125 1085.261719 C 577.8125 1086.726562 579.902344 1087.257812 581.03125 1087.378906 C 581.914062 1087.46875 584.609375 1087.402344 584.609375 1085.957031 L 584.609375 1081.40625 C 584.609375 1079.9375 582.523438 1079.398438 581.394531 1079.285156 C 580.511719 1079.195312 577.8125 1079.257812 577.8125 1080.703125 " fill-opacity="1" fill-rule="nonzero"/><path fill="#ffde59" d="M 588.699219 1060.808594 C 587.085938 1060.867188 585.566406 1062.390625 585.058594 1063.839844 C 584.105469 1066.539062 582.457031 1068.902344 580.875 1071.277344 C 580.222656 1072.257812 579.785156 1074.332031 581.308594 1074.808594 C 582.882812 1075.296875 584.417969 1073.777344 585.1875 1072.617188 C 587.082031 1069.777344 588.972656 1066.894531 590.117188 1063.660156 C 590.546875 1062.453125 590.347656 1060.75 588.699219 1060.808594 " fill-opacity="1" fill-rule="nonzero"/><path fill="#ffde59" d="M 587.503906 1046.628906 C 588.199219 1045.832031 589.800781 1044.226562 589.773438 1043.058594 C 589.710938 1040.300781 588.925781 1037.625 588.859375 1034.863281 C 588.839844 1034.050781 586.867188 1036.121094 586.761719 1036.234375 C 586.066406 1037.023438 584.464844 1038.632812 584.492188 1039.800781 C 584.550781 1042.566406 585.339844 1045.238281 585.398438 1048 C 585.417969 1048.816406 587.398438 1046.746094 587.503906 1046.628906 " fill-opacity="1" fill-rule="nonzero"/><path fill="#ffde59" d="M 587.414062 1143.75 C 585.117188 1143.75 581.90625 1149.523438 584.117188 1149.523438 C 586.414062 1149.523438 589.628906 1143.75 587.414062 1143.75 " fill-opacity="1" fill-rule="nonzero"/><path fill="#ffde59" d="M 610.429688 1093.859375 C 605.6875 1093.859375 609.621094 1095.574219 612.113281 1095.574219 C 616.851562 1095.574219 612.910156 1093.859375 610.429688 1093.859375 " fill-opacity="1" fill-rule="nonzero"/><path fill="#ffde59" d="M 575.269531 1069.980469 C 570.808594 1069.980469 572.179688 1075.730469 576.226562 1075.730469 C 580.683594 1075.730469 579.3125 1069.980469 575.269531 1069.980469 " fill-opacity="1" fill-rule="nonzero"/><path fill="#ffde59" d="M 593.253906 1039.652344 C 590.65625 1039.652344 588.152344 1045.941406 591.027344 1045.941406 C 593.628906 1045.941406 596.132812 1039.652344 593.253906 1039.652344 " fill-opacity="1" fill-rule="nonzero"/><path fill="#ffde59" d="M 610.964844 1046.929688 C 607.367188 1046.929688 605.210938 1051.421875 609.753906 1051.421875 C 613.351562 1051.421875 615.503906 1046.929688 610.964844 1046.929688 " fill-opacity="1" fill-rule="nonzero"/><path fill="#ab7704" d="M 495.511719 952.476562 C 495.511719 878.992188 555.082031 819.421875 628.5625 819.421875 C 648.695312 819.421875 667.773438 823.917969 684.878906 831.925781 C 660.476562 802.292969 623.515625 783.398438 582.128906 783.398438 C 508.652344 783.398438 449.082031 842.972656 449.082031 916.460938 C 449.082031 969.808594 480.492188 1015.800781 525.816406 1037.011719 C 506.882812 1014.027344 495.511719 984.578125 495.511719 952.476562 " fill-opacity="1" fill-rule="nonzero"/><path fill="#eca810" d="M 495.511719 952.476562 L 496.464844 952.476562 C 496.464844 915.992188 511.25 882.972656 535.15625 859.066406 C 559.066406 835.160156 592.078125 820.375 628.5625 820.375 C 648.554688 820.375 667.488281 824.835938 684.480469 832.789062 L 688.304688 834.578125 L 685.617188 831.316406 C 661.039062 801.476562 623.808594 782.445312 582.128906 782.445312 C 508.125 782.445312 448.128906 842.445312 448.128906 916.460938 C 448.128906 970.191406 479.761719 1016.511719 525.410156 1037.875 L 529.238281 1039.664062 L 526.550781 1036.40625 C 507.753906 1013.578125 496.464844 984.351562 496.464844 952.476562 L 494.558594 952.476562 C 494.558594 984.808594 506.011719 1014.46875 525.078125 1037.617188 L 525.816406 1037.011719 L 526.21875 1036.148438 C 481.21875 1015.085938 450.035156 969.429688 450.035156 916.460938 C 450.035156 879.976562 464.820312 846.957031 488.726562 823.046875 C 512.632812 799.136719 545.652344 784.355469 582.128906 784.355469 C 623.214844 784.355469 659.914062 803.109375 684.144531 832.53125 L 684.878906 831.925781 L 685.285156 831.0625 C 668.054688 822.996094 648.839844 818.464844 628.5625 818.464844 C 554.554688 818.46875 494.558594 878.464844 494.558594 952.476562 L 495.511719 952.476562 " fill-opacity="1" fill-rule="nonzero"/><path fill="#ab7704" d="M 542.566406 916.441406 L 536.84375 916.441406 C 536.847656 919.449219 535.765625 922.078125 534.210938 923.851562 C 533.433594 924.742188 532.550781 925.410156 531.632812 925.855469 C 530.710938 926.296875 529.765625 926.523438 528.742188 926.527344 C 527.722656 926.523438 526.773438 926.296875 525.855469 925.855469 C 524.480469 925.191406 523.171875 924.003906 522.207031 922.371094 C 521.246094 920.738281 520.640625 918.699219 520.640625 916.441406 C 520.640625 913.433594 521.71875 910.808594 523.277344 909.03125 C 524.054688 908.140625 524.9375 907.472656 525.855469 907.03125 C 526.773438 906.585938 527.722656 906.359375 528.742188 906.355469 C 529.765625 906.359375 530.710938 906.585938 531.632812 907.03125 C 533.003906 907.691406 534.316406 908.878906 535.277344 910.511719 C 536.242188 912.144531 536.84375 914.183594 536.84375 916.441406 L 548.289062 916.441406 C 548.285156 910.71875 546.273438 905.441406 542.828125 901.496094 C 541.101562 899.523438 539.007812 897.878906 536.617188 896.722656 C 534.230469 895.566406 531.539062 894.90625 528.742188 894.910156 C 525.949219 894.90625 523.257812 895.566406 520.871094 896.722656 C 517.285156 898.464844 514.371094 901.28125 512.355469 904.691406 C 510.335938 908.109375 509.199219 912.148438 509.195312 916.441406 C 509.203125 922.164062 511.214844 927.441406 514.660156 931.386719 C 516.386719 933.359375 518.480469 935.003906 520.871094 936.160156 C 523.257812 937.320312 525.949219 937.976562 528.742188 937.972656 C 531.539062 937.976562 534.230469 937.320312 536.617188 936.160156 C 540.203125 934.417969 543.117188 931.605469 545.132812 928.191406 C 547.148438 924.777344 548.289062 920.734375 548.289062 916.441406 L 542.566406 916.441406 " fill-opacity="1" fill-rule="nonzero"/><path fill="#ab7704" d="M 579.074219 890.703125 L 573.351562 890.703125 C 573.355469 893.714844 572.277344 896.34375 570.714844 898.117188 C 569.941406 899.003906 569.058594 899.675781 568.140625 900.121094 C 567.21875 900.5625 566.273438 900.789062 565.253906 900.789062 C 564.226562 900.789062 563.285156 900.5625 562.363281 900.121094 C 560.988281 899.457031 559.679688 898.265625 558.714844 896.632812 C 557.753906 895.003906 557.152344 892.960938 557.152344 890.703125 C 557.148438 887.695312 558.226562 885.070312 559.785156 883.292969 C 560.5625 882.40625 561.445312 881.734375 562.363281 881.292969 C 563.285156 880.847656 564.226562 880.621094 565.253906 880.621094 C 566.273438 880.621094 567.21875 880.847656 568.140625 881.292969 C 569.511719 881.953125 570.824219 883.144531 571.789062 884.777344 C 572.75 886.40625 573.355469 888.449219 573.351562 890.703125 L 584.800781 890.703125 C 584.796875 884.984375 582.78125 879.707031 579.335938 875.761719 C 577.609375 873.789062 575.515625 872.144531 573.125 870.988281 C 570.734375 869.828125 568.046875 869.171875 565.253906 869.175781 C 562.457031 869.171875 559.765625 869.828125 557.378906 870.988281 C 553.789062 872.726562 550.878906 875.542969 548.863281 878.957031 C 546.84375 882.371094 545.707031 886.414062 545.707031 890.703125 C 545.707031 896.425781 547.722656 901.703125 551.171875 905.648438 C 552.894531 907.621094 554.988281 909.265625 557.378906 910.421875 C 559.765625 911.578125 562.457031 912.238281 565.253906 912.238281 C 568.046875 912.238281 570.734375 911.578125 573.125 910.421875 C 576.714844 908.6875 579.625 905.867188 581.640625 902.453125 C 583.660156 899.039062 584.800781 894.996094 584.800781 890.703125 L 579.074219 890.703125 " fill-opacity="1" fill-rule="nonzero"/><path fill="#ab7704" d="M 628.410156 916.441406 L 622.6875 916.441406 C 622.691406 922.164062 624.707031 927.441406 628.152344 931.386719 C 629.878906 933.359375 631.972656 935.003906 634.363281 936.160156 C 636.746094 937.320312 639.4375 937.976562 642.234375 937.972656 C 645.03125 937.976562 647.722656 937.320312 650.109375 936.160156 C 653.695312 934.417969 656.609375 931.605469 658.625 928.191406 C 660.644531 924.777344 661.777344 920.734375 661.78125 916.441406 C 661.777344 910.71875 659.765625 905.441406 656.316406 901.496094 C 654.59375 899.523438 652.5 897.878906 650.109375 896.722656 C 647.722656 895.566406 645.03125 894.90625 642.234375 894.910156 C 639.4375 894.90625 636.746094 895.566406 634.363281 896.722656 C 630.773438 898.464844 627.863281 901.28125 625.847656 904.691406 C 623.828125 908.109375 622.6875 912.148438 622.6875 916.441406 L 634.132812 916.441406 C 634.128906 913.433594 635.210938 910.808594 636.765625 909.03125 C 637.546875 908.140625 638.429688 907.472656 639.347656 907.03125 C 640.265625 906.585938 641.214844 906.359375 642.234375 906.355469 C 643.261719 906.359375 644.203125 906.585938 645.125 907.03125 C 646.5 907.691406 647.804688 908.878906 648.773438 910.511719 C 649.734375 912.144531 650.332031 914.183594 650.332031 916.441406 C 650.339844 919.449219 649.257812 922.078125 647.703125 923.851562 C 646.925781 924.742188 646.039062 925.410156 645.125 925.855469 C 644.203125 926.296875 643.261719 926.523438 642.234375 926.527344 C 641.214844 926.523438 640.265625 926.296875 639.347656 925.855469 C 637.976562 925.191406 636.664062 924.003906 635.699219 922.371094 C 634.738281 920.738281 634.132812 918.699219 634.132812 916.441406 L 628.410156 916.441406 " fill-opacity="1" fill-rule="nonzero"/><path fill="#ab7704" d="M 591.902344 890.703125 L 586.179688 890.703125 C 586.183594 896.425781 588.199219 901.703125 591.644531 905.648438 C 593.367188 907.621094 595.464844 909.265625 597.855469 910.421875 C 600.242188 911.578125 602.929688 912.238281 605.726562 912.238281 C 608.519531 912.238281 611.210938 911.578125 613.601562 910.421875 C 617.191406 908.6875 620.101562 905.867188 622.113281 902.453125 C 624.136719 899.039062 625.273438 894.996094 625.273438 890.703125 C 625.269531 884.984375 623.253906 879.707031 619.808594 875.761719 C 618.089844 873.789062 615.988281 872.144531 613.601562 870.988281 C 611.210938 869.828125 608.519531 869.171875 605.726562 869.175781 C 602.929688 869.171875 600.242188 869.828125 597.855469 870.988281 C 594.265625 872.726562 591.355469 875.542969 589.335938 878.957031 C 587.320312 882.371094 586.183594 886.414062 586.179688 890.703125 L 597.628906 890.703125 C 597.625 887.695312 598.703125 885.070312 600.257812 883.292969 C 601.039062 882.40625 601.921875 881.734375 602.839844 881.292969 C 603.761719 880.847656 604.707031 880.621094 605.726562 880.621094 C 606.746094 880.621094 607.695312 880.847656 608.617188 881.292969 C 609.988281 881.953125 611.296875 883.144531 612.261719 884.777344 C 613.226562 886.40625 613.828125 888.449219 613.828125 890.703125 C 613.832031 893.714844 612.75 896.34375 611.195312 898.117188 C 610.417969 899.003906 609.535156 899.675781 608.617188 900.121094 C 607.695312 900.5625 606.746094 900.789062 605.726562 900.789062 C 604.707031 900.789062 603.761719 900.5625 602.839844 900.121094 C 601.46875 899.457031 600.15625 898.265625 599.191406 896.632812 C 598.230469 895.003906 597.628906 892.960938 597.628906 890.703125 L 591.902344 890.703125 " fill-opacity="1" fill-rule="nonzero"/><path fill="#ab7704" d="M 637.722656 974.140625 L 632.003906 973.894531 C 631.75 979.71875 629.246094 984.855469 625.34375 988.59375 C 621.433594 992.320312 616.1875 994.582031 610.425781 994.582031 C 610.109375 994.582031 609.789062 994.578125 609.460938 994.5625 L 609.46875 994.5625 C 605.234375 994.378906 601.378906 993.007812 598.140625 990.773438 C 594.910156 988.535156 592.3125 985.433594 590.6875 981.835938 L 585.457031 970.238281 L 580.253906 981.847656 C 578.960938 984.722656 577.0625 987.328125 574.550781 989.457031 C 570.472656 992.910156 565.542969 994.578125 560.589844 994.585938 C 554.429688 994.578125 548.367188 991.996094 544.078125 986.9375 C 540.628906 982.859375 538.957031 977.929688 538.953125 972.976562 C 538.960938 966.816406 541.542969 960.75 546.601562 956.460938 L 585.492188 923.511719 L 624.378906 956.460938 L 624.355469 956.441406 C 629.019531 960.441406 632.035156 966.46875 632.023438 972.972656 C 632.023438 973.277344 632.015625 973.585938 632.003906 973.894531 L 637.722656 974.140625 L 643.4375 974.382812 C 643.457031 973.914062 643.46875 973.441406 643.46875 972.972656 C 643.460938 962.925781 638.894531 953.832031 631.804688 947.75 L 631.765625 947.714844 L 585.492188 908.507812 L 539.199219 947.726562 C 531.492188 954.257812 527.5 963.613281 527.507812 972.976562 C 527.503906 980.515625 530.089844 988.136719 535.34375 994.335938 C 541.875 1002.046875 551.226562 1006.039062 560.589844 1006.03125 C 568.128906 1006.035156 575.753906 1003.445312 581.953125 998.191406 C 585.828125 994.910156 588.746094 990.878906 590.695312 986.53125 L 585.476562 984.191406 L 580.261719 986.542969 C 582.742188 992.058594 586.691406 996.769531 591.636719 1000.1875 C 596.578125 1003.605469 602.546875 1005.726562 608.976562 1006 L 608.984375 1006 C 609.464844 1006.019531 609.949219 1006.03125 610.425781 1006.03125 C 619.226562 1006.03125 627.304688 1002.550781 633.25 996.867188 C 639.199219 991.199219 643.0625 983.246094 643.4375 974.386719 L 637.722656 974.140625 " fill-opacity="1" fill-rule="nonzero"/><path fill="#ab7704" d="M 721.242188 916.273438 L 715.523438 916.273438 C 715.519531 953.414062 700.484375 986.988281 676.148438 1011.335938 C 651.800781 1035.675781 618.230469 1050.707031 581.09375 1050.714844 C 543.953125 1050.707031 510.378906 1035.675781 486.035156 1011.335938 C 461.699219 986.988281 446.664062 953.414062 446.660156 916.273438 C 446.664062 879.128906 461.699219 845.554688 486.035156 821.210938 C 510.382812 796.875 543.953125 781.839844 581.09375 781.835938 C 618.230469 781.839844 651.800781 796.875 676.148438 821.210938 C 700.484375 845.554688 715.519531 879.128906 715.523438 916.273438 L 726.96875 916.273438 C 726.972656 876.007812 710.632812 839.5 684.242188 813.117188 C 657.859375 786.726562 621.359375 770.386719 581.09375 770.390625 C 540.828125 770.386719 504.320312 786.726562 477.941406 813.117188 C 451.554688 839.5 435.214844 876.007812 435.214844 916.273438 C 435.214844 956.539062 451.554688 993.046875 477.941406 1019.425781 C 504.324219 1045.816406 540.828125 1062.15625 581.09375 1062.15625 C 621.359375 1062.15625 657.859375 1045.816406 684.242188 1019.425781 C 710.632812 993.046875 726.972656 956.539062 726.96875 916.273438 L 721.242188 916.273438 " fill-opacity="1" fill-rule="nonzero"/><path fill="#ffffff" d="M 515.792969 916.5625 C 514.832031 914.933594 514.226562 912.890625 514.230469 910.636719 C 514.226562 907.628906 515.304688 905 516.863281 903.226562 C 517.640625 902.335938 518.523438 901.664062 519.441406 901.226562 C 520.363281 900.78125 521.308594 900.550781 522.332031 900.550781 C 523.351562 900.550781 524.296875 900.78125 525.21875 901.226562 C 526.589844 901.882812 527.902344 903.074219 528.863281 904.707031 C 529.828125 906.339844 530.429688 908.378906 530.429688 910.636719 C 530.433594 913.644531 529.351562 916.273438 527.796875 918.046875 C 527.019531 918.933594 526.136719 919.605469 525.21875 920.050781 C 524.296875 920.492188 523.351562 920.71875 522.332031 920.71875 C 521.308594 920.71875 520.363281 920.492188 519.441406 920.050781 C 518.066406 919.386719 516.757812 918.195312 515.792969 916.5625 Z M 530.203125 930.355469 C 533.789062 928.613281 536.703125 925.796875 538.71875 922.386719 C 540.734375 918.972656 541.875 914.925781 541.875 910.636719 C 541.871094 904.914062 539.859375 899.636719 536.414062 895.691406 C 534.6875 893.71875 532.59375 892.074219 530.203125 890.917969 C 527.816406 889.761719 525.125 889.101562 522.332031 889.101562 C 519.535156 889.101562 516.84375 889.761719 514.457031 890.917969 C 510.871094 892.65625 507.957031 895.472656 505.9375 898.890625 C 503.921875 902.304688 502.785156 906.34375 502.78125 910.636719 C 502.785156 916.355469 504.800781 921.632812 508.246094 925.582031 C 509.972656 927.554688 512.066406 929.195312 514.457031 930.355469 C 516.84375 931.511719 519.535156 932.167969 522.332031 932.167969 C 525.125 932.167969 527.816406 931.511719 530.203125 930.355469 " fill-opacity="1" fill-rule="nonzero"/><path fill="#ffffff" d="M 553.371094 877.488281 C 554.148438 876.601562 555.03125 875.929688 555.949219 875.488281 C 556.867188 875.042969 557.816406 874.816406 558.835938 874.816406 C 559.859375 874.816406 560.804688 875.042969 561.726562 875.488281 C 563.101562 876.148438 564.410156 877.335938 565.375 878.972656 C 566.339844 880.601562 566.9375 882.640625 566.9375 884.898438 C 566.941406 887.910156 565.859375 890.53125 564.304688 892.308594 C 563.527344 893.199219 562.644531 893.871094 561.726562 894.308594 C 560.804688 894.753906 559.859375 894.980469 558.835938 894.984375 C 557.816406 894.980469 556.867188 894.753906 555.949219 894.308594 C 554.574219 893.652344 553.265625 892.460938 552.300781 890.824219 C 551.339844 889.195312 550.734375 887.15625 550.734375 884.898438 C 550.734375 881.890625 551.8125 879.265625 553.371094 877.488281 Z M 550.964844 904.617188 C 553.351562 905.773438 556.042969 906.433594 558.835938 906.429688 C 561.632812 906.433594 564.324219 905.773438 566.710938 904.617188 C 570.296875 902.878906 573.210938 900.058594 575.226562 896.648438 C 577.246094 893.234375 578.382812 889.191406 578.382812 884.898438 C 578.378906 879.175781 576.363281 873.898438 572.917969 869.953125 C 571.195312 867.984375 569.101562 866.339844 566.710938 865.179688 C 564.324219 864.027344 561.632812 863.367188 558.835938 863.367188 C 556.042969 863.367188 553.351562 864.027344 550.964844 865.179688 C 547.375 866.921875 544.464844 869.738281 542.449219 873.148438 C 540.429688 876.566406 539.292969 880.609375 539.289062 884.898438 C 539.292969 890.621094 541.308594 895.898438 544.753906 899.84375 C 546.480469 901.816406 548.574219 903.460938 550.964844 904.617188 " fill-opacity="1" fill-rule="nonzero"/><path fill="#ffffff" d="M 641.285156 918.046875 C 640.511719 918.933594 639.628906 919.605469 638.707031 920.050781 C 637.792969 920.492188 636.84375 920.71875 635.824219 920.71875 C 634.796875 920.71875 633.851562 920.492188 632.929688 920.050781 C 631.558594 919.386719 630.246094 918.195312 629.289062 916.5625 C 628.324219 914.933594 627.71875 912.894531 627.71875 910.636719 C 627.714844 907.625 628.796875 905 630.355469 903.226562 C 631.128906 902.335938 632.015625 901.664062 632.929688 901.226562 C 633.851562 900.78125 634.800781 900.550781 635.824219 900.550781 C 636.84375 900.550781 637.792969 900.78125 638.707031 901.226562 C 640.082031 901.882812 641.390625 903.074219 642.359375 904.707031 C 643.320312 906.339844 643.921875 908.378906 643.921875 910.636719 C 643.925781 913.644531 642.847656 916.273438 641.285156 918.046875 Z M 643.695312 890.917969 C 641.304688 889.761719 638.617188 889.101562 635.824219 889.101562 C 633.027344 889.101562 630.335938 889.761719 627.949219 890.917969 C 624.359375 892.65625 621.449219 895.472656 619.429688 898.890625 C 617.414062 902.304688 616.277344 906.34375 616.277344 910.636719 C 616.277344 916.355469 618.296875 921.632812 621.738281 925.582031 C 623.464844 927.554688 625.5625 929.195312 627.949219 930.355469 C 630.335938 931.511719 633.027344 932.167969 635.824219 932.167969 C 638.617188 932.167969 641.304688 931.511719 643.695312 930.355469 C 647.28125 928.613281 650.191406 925.796875 652.210938 922.386719 C 654.230469 918.972656 655.367188 914.925781 655.367188 910.636719 C 655.367188 904.914062 653.351562 899.636719 649.90625 895.691406 C 648.179688 893.71875 646.085938 892.074219 643.695312 890.917969 " fill-opacity="1" fill-rule="nonzero"/><path fill="#ffffff" d="M 593.847656 877.488281 C 594.625 876.601562 595.507812 875.929688 596.421875 875.488281 C 597.34375 875.042969 598.292969 874.816406 599.308594 874.816406 C 600.335938 874.816406 601.285156 875.042969 602.203125 875.488281 C 603.574219 876.148438 604.886719 877.335938 605.847656 878.972656 C 606.8125 880.601562 607.414062 882.640625 607.414062 884.898438 C 607.417969 887.910156 606.335938 890.53125 604.777344 892.308594 C 604 893.199219 603.117188 893.871094 602.203125 894.308594 C 601.285156 894.753906 600.335938 894.980469 599.308594 894.984375 C 598.292969 894.980469 597.34375 894.753906 596.421875 894.308594 C 595.050781 893.652344 593.742188 892.460938 592.777344 890.824219 C 591.8125 889.195312 591.210938 887.15625 591.210938 884.898438 C 591.207031 881.890625 592.289062 879.265625 593.847656 877.488281 Z M 591.441406 904.617188 C 593.828125 905.773438 596.519531 906.433594 599.308594 906.429688 C 602.109375 906.433594 604.800781 905.773438 607.183594 904.617188 C 610.773438 902.878906 613.6875 900.058594 615.703125 896.648438 C 617.722656 893.234375 618.855469 889.191406 618.859375 884.898438 C 618.855469 879.175781 616.84375 873.898438 613.398438 869.953125 C 611.671875 867.984375 609.578125 866.339844 607.183594 865.179688 C 604.800781 864.027344 602.109375 863.367188 599.308594 863.367188 C 596.519531 863.367188 593.828125 864.027344 591.441406 865.179688 C 587.851562 866.921875 584.941406 869.738281 582.921875 873.148438 C 580.902344 876.566406 579.765625 880.609375 579.765625 884.898438 C 579.773438 890.621094 581.785156 895.898438 585.230469 899.84375 C 586.957031 901.816406 589.050781 903.460938 591.441406 904.617188 " fill-opacity="1" fill-rule="nonzero"/><path fill="#ffffff" d="M 604.007812 988.777344 C 603.695312 988.777344 603.371094 988.769531 603.050781 988.757812 L 603.058594 988.757812 C 598.820312 988.574219 594.964844 987.203125 591.726562 984.96875 C 588.492188 982.730469 585.898438 979.628906 584.273438 976.03125 L 579.042969 964.433594 L 573.835938 976.042969 C 572.550781 978.914062 570.652344 981.523438 568.140625 983.652344 C 564.054688 987.105469 559.128906 988.773438 554.175781 988.777344 C 548.019531 988.769531 541.953125 986.191406 537.664062 981.132812 C 534.210938 977.054688 532.546875 972.121094 532.539062 967.167969 C 532.546875 961.011719 535.128906 954.945312 540.1875 950.65625 L 579.074219 917.707031 L 617.949219 950.640625 C 622.613281 954.644531 625.617188 960.667969 625.609375 967.164062 C 625.609375 967.46875 625.605469 967.777344 625.589844 968.089844 C 625.332031 973.914062 622.832031 979.050781 618.929688 982.785156 C 615.019531 986.519531 609.769531 988.777344 604.007812 988.777344 Z M 625.390625 941.945312 L 625.351562 941.910156 L 579.074219 902.707031 L 532.789062 941.921875 C 525.078125 948.449219 521.085938 957.804688 521.09375 967.167969 C 521.089844 974.707031 523.675781 982.332031 528.929688 988.527344 C 535.460938 996.242188 544.8125 1000.234375 554.175781 1000.226562 C 561.714844 1000.230469 569.339844 997.640625 575.539062 992.386719 C 576.832031 991.292969 577.976562 990.089844 579.054688 988.84375 C 580.871094 990.929688 582.933594 992.800781 585.222656 994.382812 C 590.164062 997.800781 596.132812 999.917969 602.566406 1000.191406 L 602.570312 1000.191406 C 603.050781 1000.214844 603.53125 1000.222656 604.007812 1000.222656 C 612.808594 1000.226562 620.894531 996.746094 626.832031 991.066406 C 632.78125 985.390625 636.644531 977.441406 637.027344 968.578125 C 637.046875 968.109375 637.054688 967.632812 637.054688 967.164062 C 637.046875 957.121094 632.480469 948.027344 625.390625 941.945312 " fill-opacity="1" fill-rule="nonzero"/><path fill="#ffffff" d="M 669.09375 1003.027344 C 644.796875 1027.320312 611.289062 1042.328125 574.21875 1042.328125 C 537.15625 1042.328125 503.648438 1027.320312 479.351562 1003.027344 C 455.0625 978.726562 440.054688 945.21875 440.050781 908.152344 C 440.054688 871.082031 455.0625 837.570312 479.351562 813.273438 C 503.648438 788.984375 537.15625 773.976562 574.21875 773.976562 C 611.289062 773.976562 644.796875 788.984375 669.09375 813.273438 C 693.382812 837.570312 708.386719 871.082031 708.390625 908.152344 C 708.386719 945.21875 693.382812 978.726562 669.09375 1003.027344 Z M 677.1875 805.179688 C 650.855469 778.835938 614.414062 762.523438 574.21875 762.523438 C 534.03125 762.523438 497.589844 778.835938 471.257812 805.179688 C 444.914062 831.515625 428.605469 867.957031 428.605469 908.152344 C 428.605469 948.347656 444.914062 984.789062 471.257812 1011.125 C 497.589844 1037.464844 534.03125 1053.78125 574.21875 1053.777344 C 614.414062 1053.78125 650.855469 1037.464844 677.1875 1011.125 C 703.53125 984.789062 719.84375 948.347656 719.839844 908.152344 C 719.84375 867.957031 703.53125 831.515625 677.1875 805.179688 " fill-opacity="1" fill-rule="nonzero"/><g fill="#ffde59" fill-opacity="1"><g transform="translate(346.664451, 745.909608)"><g><path d="M -13.511719 -184.917969 C -18.441406 -193.332031 -23.921875 -202.964844 -29.570312 -212.15625 C -37.070312 -223.808594 -57.277344 -227.851562 -69.457031 -222.3125 C -71.757812 -220.902344 -74.496094 -219.65625 -76.933594 -218.546875 C -79.367188 -217.441406 -81.804688 -216.332031 -84.546875 -215.089844 C -90.027344 -212.597656 -91.605469 -206.367188 -88.972656 -200.582031 C -86.484375 -195.101562 -84.296875 -189.480469 -81.96875 -183.558594 C -74.082031 -166.203125 -66.800781 -148.570312 -58.605469 -131.351562 C -47.949219 -107.902344 -36.820312 -85.039062 -26.160156 -61.59375 C -18.964844 -45.757812 -12.679688 -29.507812 -5.953125 -13.09375 C -3.625 -7.167969 2.851562 -4.234375 8.332031 -6.726562 C 14.421875 -9.496094 15.804688 -14.535156 13.785156 -20.597656 C 13.09375 -22.117188 12.402344 -23.640625 11.710938 -25.164062 C 7.722656 -34.742188 3.734375 -44.320312 -0.25 -53.898438 C -3.570312 -61.203125 -6.285156 -68.789062 -9.605469 -76.097656 C -11.128906 -79.449219 -13.121094 -82.214844 -14.644531 -85.566406 C -16.335938 -88.472656 -16.25 -90.714844 -13.179688 -92.84375 C -10.578125 -94.394531 -8.695312 -96.722656 -6.8125 -99.046875 C 3.125 -112.75 4.757812 -128.554688 0.550781 -144.277344 C -2.992188 -157.734375 -8.5 -170.660156 -13.511719 -184.917969 Z M -45.761719 -150.785156 C -51.796875 -165.675781 -57.691406 -180.265625 -64.03125 -195.019531 C -65.390625 -198.8125 -64.835938 -201.636719 -61.789062 -203.019531 C -60.875 -203.433594 -59.519531 -203.683594 -58.027344 -203.628906 C -52.628906 -203.878906 -47.285156 -202.632812 -44.488281 -197.289062 C -38.507812 -184.941406 -32.53125 -172.597656 -26.855469 -160.113281 C -20.765625 -146.714844 -15.367188 -130.796875 -20.984375 -116.484375 C -21.152344 -116.042969 -21.484375 -115.15625 -21.953125 -114.574219 C -22.894531 -113.414062 -23.976562 -112.554688 -24.613281 -111.53125 C -25.46875 -112.609375 -26.492188 -113.246094 -27.046875 -114.464844 C -33.332031 -126.671875 -39.3125 -139.019531 -45.152344 -151.058594 C -45.457031 -150.921875 -45.457031 -150.921875 -45.761719 -150.785156 Z M -45.761719 -150.785156 "/></g></g></g><g fill="#eca810" fill-opacity="1"><g transform="translate(405.813505, 718.50974)"><g><path d="M -25.308594 -81.453125 C -22.195312 -71.5625 -19.398438 -61.574219 -16.28125 -51.683594 C -12.460938 -39.558594 -8.878906 -25.960938 -2.828125 -14.539062 C 0.660156 -7.921875 7.070312 -5.382812 14.289062 -6.957031 C 23.542969 -9.871094 31.519531 -12.382812 40.167969 -17.210938 C 45.507812 -20.296875 47.8125 -25.230469 45.363281 -30.773438 C 43.4375 -35.777344 38.503906 -38.082031 32.441406 -36.171875 C 28.933594 -35.066406 25.722656 -33.003906 22.414062 -31.257812 C 20.601562 -30.335938 19.109375 -29.515625 17.832031 -29.113281 C 14.320312 -28.007812 13.398438 -29.820312 11.589844 -35.5625 C 3.097656 -59.191406 -4.859375 -83.335938 -12.398438 -107.261719 C -13.402344 -110.453125 -12.53125 -112.128906 -9.660156 -113.035156 C -7.105469 -113.839844 -4.554688 -114.644531 -2 -115.449219 C -0.726562 -115.847656 0.550781 -116.25 1.828125 -116.652344 C 4.378906 -117.457031 7.25 -118.363281 9.183594 -120.023438 C 13.785156 -123.226562 14.410156 -129.035156 11.425781 -134.054688 C 8.121094 -138.976562 3.371094 -139.582031 -1.734375 -137.976562 C -5.78125 -136.351562 -9.507812 -134.824219 -13.65625 -133.519531 C -19.078125 -131.808594 -19.917969 -132.246094 -21.726562 -137.988281 C -23.035156 -142.136719 -24.023438 -146.386719 -25.328125 -150.53125 C -29.515625 -166.046875 -33.917969 -181.140625 -38.644531 -196.136719 C -40.132812 -201.980469 -40.433594 -202.9375 -36.285156 -204.242188 C -35.648438 -204.441406 -34.691406 -204.746094 -33.734375 -205.046875 C -27.671875 -206.957031 -21.308594 -207.910156 -15.148438 -209.5 C -9.40625 -211.308594 -4.164062 -214.710938 -5.957031 -221.511719 C -7.230469 -227.773438 -12.566406 -231.355469 -19.464844 -229.882812 C -23.074219 -229.09375 -26.886719 -228.945312 -30.714844 -227.742188 C -34.863281 -226.433594 -39.328125 -225.027344 -43.476562 -223.71875 C -47.941406 -222.3125 -52.089844 -221.007812 -56.453125 -219.28125 C -63.589844 -216.332031 -65.054688 -210.960938 -62.84375 -203.941406 C -56.3125 -183.203125 -50.519531 -162.585938 -44.085938 -142.167969 C -43.082031 -138.976562 -42.277344 -136.425781 -41.691406 -133.453125 C -40.300781 -127.929688 -37.953125 -122.707031 -36.347656 -117.601562 C -31.890625 -105.679688 -29.027344 -93.257812 -25.308594 -81.453125 Z M -25.308594 -81.453125 "/></g></g></g><g fill="#eca810" fill-opacity="1"><g transform="translate(463.493598, 698.702249)"><g><path d="M 10.613281 -112.683594 C 10.941406 -112.738281 11.269531 -112.792969 11.601562 -112.847656 C 17.074219 -82.226562 22.496094 -51.933594 27.96875 -21.308594 C 28.246094 -19.660156 28.90625 -17.734375 29.511719 -16.140625 C 31.882812 -12.128906 36.007812 -9.769531 40.296875 -10.488281 C 48.214844 -11.816406 49.304688 -19.460938 48.199219 -26.058594 C 46.484375 -36.285156 44.769531 -46.507812 42.78125 -56.351562 C 37.085938 -88.292969 31.058594 -120.179688 25.75 -151.847656 C 22.433594 -169.609375 19.445312 -187.421875 16.515625 -204.90625 C 15.296875 -212.160156 16.289062 -212.328125 23.214844 -213.488281 C 28.164062 -214.320312 33.222656 -214.488281 38.167969 -215.320312 C 45.097656 -216.480469 49.269531 -221.929688 47.945312 -227.8125 C 46.621094 -233.695312 41.28125 -237.207031 34.683594 -236.101562 C 34.683594 -236.101562 34.355469 -236.046875 34.023438 -235.992188 C 30.398438 -235.382812 26.769531 -234.773438 23.140625 -234.164062 C 6.589844 -231.730469 -10.289062 -229.238281 -27.113281 -226.417969 C -31.730469 -225.644531 -34.699219 -223.109375 -35.683594 -218.875 C -36.667969 -214.640625 -35.234375 -210.132812 -31.492188 -208.046875 C -25.9375 -205.246094 -21.320312 -206.023438 -15.710938 -206.960938 C -13.730469 -207.292969 -11.421875 -207.679688 -9.113281 -208.070312 C -6.144531 -208.566406 -4.605469 -207.46875 -4.4375 -204.445312 C -3.828125 -200.816406 -3.546875 -197.132812 -2.886719 -193.171875 C 1.59375 -166.453125 6.132812 -139.402344 10.613281 -112.683594 Z M 10.613281 -112.683594 "/></g></g></g><g fill="#eca810" fill-opacity="1"><g transform="translate(547.551411, 684.884854)"><g/></g></g><g fill="#ffde59" fill-opacity="1"><g transform="translate(605.590566, 682.348447)"><g><path d="M 5.867188 -66.976562 C 5.023438 -57.3125 4.175781 -47.648438 3.328125 -37.984375 C 2.988281 -30.292969 2.015625 -22.992188 2.039062 -15.601562 C 1.699219 -7.910156 5.957031 -2.835938 11.953125 -2.308594 C 18.3125 -2.089844 22.417969 -6.765625 23.148438 -15.097656 C 24.1875 -30.785156 25.226562 -46.476562 26.265625 -62.164062 C 27.492188 -76.160156 28.746094 -90.488281 29.972656 -104.484375 C 30.324219 -108.480469 31.410156 -109.394531 35.4375 -109.375 C 40.433594 -108.9375 45.101562 -108.53125 50.070312 -107.757812 C 56.066406 -107.234375 61.542969 -108.433594 63.460938 -114.980469 C 64.957031 -120.554688 61.757812 -126.207031 55.183594 -127.792969 C 49.910156 -128.925781 44.246094 -129.421875 38.941406 -130.222656 C 34.277344 -130.632812 33.640625 -131.023438 34.019531 -135.355469 C 36.25 -156.984375 38.121094 -178.308594 39.988281 -199.632812 C 40.847656 -205.601562 41.238281 -206.238281 47.292969 -206.382812 C 48.628906 -206.265625 49.625 -206.175781 50.625 -206.089844 C 57.230469 -204.839844 63.867188 -203.921875 70.140625 -202.699219 C 75.804688 -202.203125 80.976562 -203.765625 82.863281 -209.980469 C 84.417969 -216.222656 81.191406 -221.542969 74.949219 -223.097656 C 66.734375 -225.160156 58.433594 -226.222656 49.769531 -226.980469 C 45.105469 -227.390625 40.078125 -227.496094 35.355469 -227.238281 C 32.328125 -227.167969 29.183594 -225.761719 26.675781 -223.96875 C 22.050781 -221.015625 20.917969 -215.742188 20.449219 -210.410156 C 18.425781 -191.113281 16.703125 -171.457031 15.007812 -152.128906 C 11.527344 -123.894531 8.351562 -95.296875 5.867188 -66.976562 Z M 5.867188 -66.976562 "/></g></g></g><g fill="#eca810" fill-opacity="1"><g transform="translate(673.13654, 688.915504)"><g><path d="M 41.238281 -111.222656 C 41.566406 -111.164062 41.898438 -111.105469 42.226562 -111.046875 C 46.511719 -135.085938 50.800781 -159.121094 55.085938 -183.160156 C 56.789062 -192.710938 58.160156 -202.320312 59.863281 -211.867188 C 60.710938 -218.511719 57.308594 -224.214844 51.382812 -225.273438 C 42.820312 -226.796875 39.765625 -219.1875 38.53125 -212.273438 C 37.746094 -205.960938 36.960938 -199.644531 35.84375 -193.386719 C 32.003906 -169.949219 27.835938 -146.570312 23.335938 -123.25 C 18.664062 -98.941406 13.988281 -74.632812 9.3125 -50.324219 C 7.375 -39.457031 5.167969 -28.976562 3.289062 -18.441406 C 1.878906 -10.539062 3.070312 -3.871094 11.960938 -2.285156 C 16.296875 -1.851562 20.777344 -4.109375 22.257812 -8.601562 C 23.269531 -10.460938 23.5625 -12.105469 23.917969 -14.082031 C 26.089844 -26.265625 28.203125 -38.121094 30.375 -50.304688 C 34.015625 -70.71875 37.65625 -91.136719 41.238281 -111.222656 Z M 41.238281 -111.222656 "/></g></g></g><g fill="#eca810" fill-opacity="1"><g transform="translate(697.771473, 691.52576)"><g><path d="M 77.257812 10.769531 C 77.621094 9.480469 77.894531 8.515625 78.261719 7.230469 C 78.667969 4.5625 78.753906 1.804688 79.484375 -0.769531 C 85.8125 -26.785156 92.144531 -52.804688 98.796875 -78.734375 C 103.714844 -98.546875 108.082031 -118.863281 113.738281 -138.816406 C 118.386719 -155.226562 124.09375 -171.6875 129.390625 -187.917969 C 131.214844 -194.355469 131.5625 -202.945312 123.519531 -205.226562 C 122.875 -205.410156 121.816406 -205.359375 121.175781 -205.542969 C 116.484375 -206.175781 112.585938 -203.457031 110.667969 -199.132812 C 107.566406 -188.191406 104.050781 -177.019531 100.628906 -166.171875 C 100.355469 -165.203125 99.4375 -164.421875 98.84375 -163.546875 C 98.289062 -164.050781 97.1875 -165.058594 97.046875 -165.792969 C 93.023438 -177.363281 89.324219 -188.84375 85.625 -200.320312 C 84.515625 -203.765625 84.046875 -207.023438 82.523438 -210.238281 C 80.769531 -213.863281 77.316406 -217.625 73.453125 -218.71875 C 67.984375 -220.269531 62.109375 -216.71875 60.929688 -210.101562 C 57.96875 -198.421875 55.421875 -186.976562 52.230469 -175.714844 C 43.019531 -143.210938 33.578125 -111.121094 24.136719 -79.03125 C 19.757812 -63.585938 14.414062 -48.410156 9.714844 -33.054688 C 7.023438 -24.78125 4.742188 -16.734375 2.371094 -8.367188 C 1.144531 -2.804688 3.359375 1.648438 8.003906 3.660156 C 14.4375 5.480469 19.671875 4.183594 22 -2.804688 C 24.054688 -8.828125 25.789062 -14.941406 27.429688 -20.734375 C 31.628906 -33.101562 35.832031 -45.472656 39.296875 -57.699219 C 50.15625 -93.558594 60.78125 -129.832031 70.996094 -165.875 C 71.5 -166.429688 72.09375 -167.304688 72.921875 -167.765625 C 73.472656 -167.261719 74.347656 -166.664062 74.488281 -165.929688 C 75.6875 -162.808594 77.210938 -159.59375 78.089844 -156.566406 C 80.964844 -144.625 83.839844 -132.6875 86.621094 -120.425781 C 86.671875 -119.367188 86.535156 -117.667969 86.171875 -116.378906 C 83.625 -104.933594 81.167969 -93.8125 78.296875 -82.457031 C 71.832031 -54.738281 64.816406 -27.523438 58.121094 -0.21875 C 56.757812 7.046875 56.128906 14.167969 64.816406 16.628906 C 68.679688 17.726562 72.214844 16.292969 75.148438 13.300781 C 76.066406 12.515625 76.660156 11.644531 77.257812 10.769531 Z M 77.257812 10.769531 "/></g></g></g><g fill="#eca810" fill-opacity="1"><g transform="translate(771.7312, 711.824562)"><g><path d="M 38.1875 -83.320312 C 38.496094 -83.183594 38.800781 -83.046875 39.105469 -82.910156 C 31.214844 -65.1875 23.15625 -47.90625 15.707031 -30.351562 C 12.988281 -24.242188 11.183594 -17.722656 9.074219 -11.335938 C 7.269531 -4.816406 10.390625 1.332031 16.230469 4.664062 C 23.871094 8.0625 28.894531 9.933594 37.285156 6.714844 C 76.417969 -8.816406 90.320312 -29.355469 108.34375 -64.902344 C 118.644531 -85.578125 128.507812 -106.085938 135.144531 -128.394531 C 138.886719 -141.742188 143.046875 -165.882812 134.699219 -178.386719 C 127.605469 -189.597656 119.527344 -196.125 107.304688 -201.566406 C 99.222656 -204.796875 92.125 -202.832031 88.894531 -194.75 C 80.324219 -175.5 69.308594 -157.335938 61.960938 -137.542969 C 55.15625 -118.96875 46.214844 -101.347656 38.1875 -83.320312 Z M 57.167969 -74.136719 C 61.386719 -83.609375 65.773438 -92.640625 69.546875 -101.945312 C 74.582031 -113.25 78.867188 -124.523438 83.898438 -135.832031 C 89.886719 -149.273438 96.175781 -162.585938 102.636719 -175.453125 C 103.859375 -178.203125 104.878906 -178.847656 106.40625 -178.167969 C 107.019531 -177.894531 107.628906 -177.621094 108.410156 -176.910156 C 115.402344 -171.234375 119.304688 -164.371094 118.824219 -155.066406 C 118.273438 -143.960938 115.277344 -133.941406 111.84375 -123.757812 C 106.058594 -105.828125 97.355469 -89.566406 89.125 -72.726562 C 75.117188 -44.546875 64.578125 -29.101562 35.703125 -15.226562 C 35.125 -14.753906 34.207031 -15.160156 33.019531 -14.957031 C 33.121094 -16.011719 32.785156 -16.894531 33.191406 -17.808594 C 35.199219 -23.140625 37.339844 -28.777344 39.652344 -33.972656 C 45.640625 -47.417969 51.625 -60.863281 57.167969 -74.136719 Z M 57.167969 -74.136719 "/></g></g></g></svg>