<svg xmlns="http://www.w3.org/2000/svg" xmlns:xlink="http://www.w3.org/1999/xlink" width="500" zoomAndPan="magnify" viewBox="0 0 375 374.999991" height="500" preserveAspectRatio="xMidYMid meet" version="1.0"><path fill="#d86e27" d="M 372.597656 4.957031 C 366.671875 3.421875 360.742188 1.890625 354.8125 0.359375 C 354.359375 0.101562 353.789062 -0.0078125 353.128906 0.117188 C 352.828125 0.148438 352.550781 0.230469 352.300781 0.355469 C 351.144531 0.722656 350.007812 1.140625 348.875 1.558594 C 345.011719 2.988281 341.214844 4.558594 337.46875 6.226562 C 331.828125 8.734375 326.3125 11.464844 320.898438 14.359375 C 313.617188 18.25 306.53125 22.441406 299.628906 26.878906 C 291.011719 32.414062 282.675781 38.332031 274.636719 44.554688 C 265.253906 51.820312 256.277344 59.515625 247.710938 67.578125 C 237.839844 76.867188 228.511719 86.640625 219.726562 96.808594 C 209.761719 108.34375 200.464844 120.355469 191.863281 132.777344 C 182.164062 146.78125 173.335938 161.289062 165.324219 176.160156 C 156.304688 192.90625 148.308594 210.121094 141.246094 227.640625 C 139.871094 231.046875 138.535156 234.46875 137.230469 237.902344 C 132.675781 234.351562 128.117188 230.804688 123.558594 227.257812 C 111.609375 217.953125 99.664062 208.652344 87.714844 199.347656 C 76.734375 190.796875 65.753906 182.25 54.777344 173.699219 C 51.984375 171.527344 49.195312 169.355469 46.402344 167.183594 C 45.691406 166.628906 45.066406 166.09375 44.183594 165.761719 C 41.414062 164.71875 38.546875 163.367188 35.667969 162.640625 C 34.574219 162.363281 33.199219 162.742188 32.089844 162.910156 C 30.164062 163.207031 28.238281 163.5 26.308594 163.796875 C 25.097656 163.980469 23.453125 163.976562 22.441406 164.691406 C 21.882812 165.085938 21.617188 165.59375 21.285156 166.132812 C 18.207031 171.164062 15.128906 176.195312 12.050781 181.226562 C 8.617188 186.832031 5.183594 192.4375 1.75 198.046875 C 0.953125 199.355469 0.0351562 200.445312 0.3125 202.027344 C 0.640625 203.863281 1.035156 205.691406 1.394531 207.527344 C 2.769531 214.53125 4.144531 221.535156 5.519531 228.542969 C 5.945312 230.699219 6.277344 232.894531 6.796875 235.035156 C 7.101562 236.292969 8.035156 236.945312 9.277344 237.402344 C 10.363281 237.804688 11.449219 238.203125 12.527344 238.613281 C 12.910156 238.757812 13.292969 238.90625 13.679688 239.054688 C 13.886719 239.132812 14.097656 239.214844 14.308594 239.292969 C 14.417969 239.335938 14.527344 239.378906 14.636719 239.421875 C 14.652344 239.425781 14.664062 239.429688 14.679688 239.4375 C 15.765625 239.859375 16.851562 240.285156 17.9375 240.714844 C 24.09375 243.152344 30.203125 245.703125 36.257812 248.34375 C 54.441406 256.277344 72.230469 265.019531 89.378906 274.699219 C 109.5625 286.09375 129.019531 298.808594 146.28125 313.742188 C 150.421875 317.324219 154.421875 321.039062 158.253906 324.898438 C 159.578125 326.234375 162.332031 325.589844 162.753906 323.808594 C 163.289062 321.550781 163.894531 319.308594 164.503906 317.070312 C 166.199219 310.835938 168.039062 304.640625 169.976562 298.472656 C 172.925781 289.070312 176.109375 279.730469 179.5 270.453125 C 183.800781 258.675781 188.4375 247 193.40625 235.449219 C 199.117188 222.167969 205.28125 209.050781 211.929688 196.144531 C 219.226562 181.96875 227.101562 168.046875 235.636719 154.464844 C 244.53125 140.3125 254.140625 126.53125 264.585938 113.292969 C 275.214844 99.828125 286.734375 86.949219 299.25 74.914062 C 311.78125 62.863281 325.3125 51.632812 339.925781 41.730469 C 347.308594 36.730469 354.953125 32.058594 362.847656 27.769531 C 364.660156 26.785156 367.382812 25.910156 368.238281 24.070312 C 368.53125 23.445312 368.742188 22.78125 368.988281 22.140625 C 370.121094 19.222656 371.253906 16.304688 372.386719 13.386719 C 373.082031 11.585938 373.78125 9.789062 374.476562 7.992188 C 374.96875 6.730469 373.917969 5.296875 372.597656 4.957031 " fill-opacity="1" fill-rule="nonzero"/></svg>